<svg width="262" height="137" viewBox="0 0 262 137" fill="none" xmlns="http://www.w3.org/2000/svg">
<path d="M213.249 18.2285C213.65 18.1899 213.535 18.7099 214.394 19.7689C214.318 19.3261 214.223 18.9024 214.108 18.6713C213.86 18.1899 213.726 16.919 214.223 16.9576C214.719 16.9961 214.395 17.6123 215.216 19.1527L215.445 19.018C215.445 18.7676 215.426 18.344 215.407 17.9204C215.387 17.2849 215.216 16.4184 215.349 16.1488C215.483 15.8792 216.056 15.5711 216.094 16.4569C216.151 17.7085 216.476 19.0757 216.514 18.9217L216.724 18.9024C217.202 16.9383 216.724 16.4184 217.278 16.2258C217.813 16.0333 217.813 17.2849 217.774 18.1707C217.736 18.8254 217.774 20.2696 218.195 20.7703C218.195 20.7831 218.201 20.7959 218.214 20.8088C218.328 20.9243 218.519 20.9628 218.71 20.9436C218.723 20.9436 218.729 20.9436 218.729 20.9436C218.78 20.9436 218.831 20.9372 218.882 20.9243C219.13 20.8473 219.455 20 219.932 19.6919C220.391 19.3646 220.62 19.923 220.62 19.923C220.62 19.923 219.722 21.0591 219.398 22.1182C219.073 23.158 218.195 23.4084 217.908 23.9283C217.774 24.1786 217.698 27.4714 217.698 27.4714C216.38 28.415 214.509 28.4342 214.509 28.4342C214.509 28.4342 215.273 24.2749 214.891 23.7357C214.509 23.1965 214.414 22.5611 214.223 21.4057C214.223 21.4057 213.764 20.0385 213.478 19.6727C213.172 19.3068 212.829 18.2862 213.249 18.2285Z" fill="#FF8B66"/>
<path d="M218.214 20.8089C218.328 20.9244 218.519 20.9629 218.71 20.9437C218.577 20.9822 217.507 21.3288 217.183 22.1568C217.183 22.1568 217.163 21.2325 218.214 20.8089Z" fill="#EF6E4B"/>
<path d="M228.334 42.3757L226.692 48.3451L226.291 46.689L212.81 47.7096C212.81 47.7096 210.957 46.2076 211.015 45.5144C211.091 44.8212 212.16 33.2482 212.16 33.2482L212.619 31.573L212.542 27.7988L217.965 25.9694L218.271 30.225L217.832 30.6487L217.507 40.8544L222.166 40.6041L222.854 40.0649L227.666 38.6592L228.334 42.3757Z" fill="#662C33"/>
<path d="M233.91 37.5039C233.91 37.5039 237.538 40.5464 247.43 39.1407V42.3757C247.43 42.3757 241.644 46.1114 238.589 45.3411C235.533 44.5516 233.357 40.8545 233.357 40.8545L233.91 37.5039Z" fill="#4C1E27"/>
<path d="M255.049 136.75H245.158C244.47 132.783 245.578 128.816 245.578 128.816L250.084 128.046C250.505 130.549 251.001 131.532 251.688 132.032C252.185 132.417 252.796 132.533 253.541 132.783C254.381 133.091 254.839 133.63 255.068 134.227C255.508 135.402 255.049 136.75 255.049 136.75Z" fill="#662C33"/>
<path d="M255.068 134.227C252.624 134.536 247.277 135.055 247.602 133.63C247.869 132.437 250.123 132.128 251.688 132.032C252.185 132.417 252.796 132.533 253.541 132.783C254.381 133.091 254.839 133.63 255.068 134.227Z" fill="#8B383E"/>
<path d="M234.54 136.75H224.649C224.649 136.75 224.343 135.826 224.496 134.824C224.611 134.035 225.031 133.188 226.177 132.783C227.036 132.494 227.685 132.379 228.22 131.878C228.812 131.32 229.251 130.28 229.614 128.046L234.139 128.816C234.139 128.816 235.228 132.783 234.54 136.75Z" fill="#662C33"/>
<path d="M224.496 134.824C224.611 134.035 225.031 133.188 226.177 132.783C227.036 132.494 227.685 132.379 228.22 131.878C229.48 132.263 231.218 132.976 231.772 134.054C232.516 135.537 226.749 135.306 224.496 134.824Z" fill="#8B383E"/>
<path d="M251.173 130.569C250.619 130.588 246.857 131.224 244.833 133.303L243.955 124.522C243.955 124.522 244.337 117.667 243.955 116.897C243.573 116.107 241.281 85.9716 240.899 85.5865C240.689 85.3554 240.193 85.1628 239.811 85.0473C239.41 85.1628 238.913 85.3554 238.703 85.5865C238.322 85.9716 236.03 116.107 235.648 116.897C235.266 117.667 235.648 124.522 235.648 124.522L234.77 133.303C232.746 131.224 228.984 130.588 228.43 130.569C227.876 130.53 229.671 122.058 228.888 121.153C228.105 120.248 228.888 102.551 228.888 102.551C228.888 102.551 228.277 99.2969 228.43 94.4251C228.602 89.5533 228.907 81.1768 228.926 80.3103C228.946 79.4438 229.614 69.3343 229.614 69.3343L239.811 69.7965L249.989 69.3343C249.989 69.3343 250.657 79.4438 250.676 80.3103C250.695 81.1768 251.001 89.5533 251.173 94.4251C251.345 99.2969 250.715 102.551 250.715 102.551C250.715 102.551 251.498 120.248 250.715 121.153C249.932 122.058 251.727 130.53 251.173 130.569Z" fill="#8BBDDB"/>
<path d="M229.155 38.6784C229.155 38.6784 245.845 40.0071 252.338 42.3756C252.338 42.3756 250.428 66.8309 250.867 80.2332C250.867 80.2332 241.549 81.5811 228.926 77.21C228.926 77.21 225.928 44.5901 229.155 38.6784Z" fill="#105E99"/>
<path d="M242.121 37.2728C241.224 38.1201 242.121 40.5463 242.121 40.5463C242.121 40.5463 241.53 42.4527 239.83 42.3564C238.36 42.2794 237.539 40.5463 237.539 40.5463C238.321 39.5835 237.539 37.0802 237.539 37.0802L242.121 37.2728Z" fill="#EF6E4B"/>
<path d="M235.553 34.6154C235.266 35.1546 233.738 34.4614 233.91 32.7861C234.063 31.3226 235.304 32.5743 235.304 32.5743C235.304 32.5743 235.858 34.0763 235.553 34.6154Z" fill="#FF8B66"/>
<path d="M243.993 32.6513C243.993 32.6513 245.234 31.3996 245.387 32.8631C245.559 34.5576 244.05 35.2316 243.745 34.6924C243.439 34.1533 243.993 32.6513 243.993 32.6513Z" fill="#FF8B66"/>
<path d="M239.524 38.6785C236.775 38.6785 235.209 36.8684 235.209 31.4382C235.209 28.6268 236.641 26.913 239.715 26.913C242.79 26.913 244.088 28.6268 244.088 31.4382C244.088 37.2728 242.37 38.6785 239.524 38.6785Z" fill="#FF8B66"/>
<path d="M243.191 33.383C243.229 33.6526 242.981 33.9415 242.637 33.9992C242.293 34.057 241.988 33.8837 241.931 33.5949C241.873 33.3253 242.122 33.0364 242.465 32.9787C242.809 32.9209 243.134 33.0942 243.191 33.383Z" fill="#DB614D"/>
<path d="M237.519 33.5371C237.5 33.8066 237.214 34.0185 236.851 33.9992C236.507 33.98 236.24 33.7296 236.259 33.4408C236.278 33.1712 236.565 32.9594 236.927 32.9786C237.271 32.9979 237.539 33.2482 237.519 33.5371Z" fill="#DB614D"/>
<path d="M241.93 30.5524C241.892 30.5524 241.854 30.5396 241.816 30.5139C241.434 30.1095 240.785 30.1288 240.766 30.1288C240.689 30.1288 240.632 30.071 240.632 29.994C240.613 29.9169 240.689 29.8592 240.766 29.8592C240.785 29.8592 241.568 29.8399 242.026 30.3213C242.083 30.3791 242.083 30.4754 242.026 30.5139C241.988 30.5396 241.956 30.5524 241.93 30.5524Z" fill="#0E3944"/>
<path d="M236.736 30.5524C236.711 30.5524 236.679 30.5396 236.641 30.5139C236.584 30.4754 236.584 30.3791 236.641 30.3213C237.099 29.8399 237.882 29.8592 237.901 29.8592C237.978 29.8592 238.054 29.9169 238.035 29.994C238.035 30.071 237.978 30.1288 237.901 30.1288C237.901 30.1288 237.214 30.1095 236.851 30.5139C236.813 30.5396 236.775 30.5524 236.736 30.5524Z" fill="#0E3944"/>
<path d="M241.682 32.0351C241.682 32.3817 241.529 32.6513 241.338 32.6513C241.148 32.6513 240.995 32.3817 240.995 32.0351C240.995 31.6885 241.148 31.3997 241.338 31.3997C241.529 31.3997 241.682 31.6885 241.682 32.0351Z" fill="#1A4850"/>
<path d="M238.016 32.0351C238.016 32.3817 237.863 32.6513 237.672 32.6513C237.481 32.6513 237.328 32.3817 237.328 32.0351C237.328 31.6885 237.481 31.3997 237.672 31.3997C237.863 31.3997 238.016 31.6885 238.016 32.0351Z" fill="#1A4850"/>
<path d="M238.016 35.713C238.016 35.713 240.441 36.0404 241.682 35.4242C241.682 35.4242 240.976 37.0995 239.658 36.9454C238.321 36.7914 238.016 35.713 238.016 35.713Z" fill="#1A4850"/>
<path d="M240.002 34.8465C239.735 34.8465 239.467 34.7695 239.372 34.7503L239.467 34.4614C239.754 34.5577 240.193 34.5962 240.307 34.4807C240.327 34.4422 240.327 34.3459 240.269 34.2111C239.868 33.3638 239.773 31.2071 239.773 31.1109H240.078C240.078 31.1301 240.155 33.2868 240.517 34.0956C240.632 34.3395 240.632 34.532 240.517 34.6732C240.403 34.808 240.212 34.8465 240.002 34.8465Z" fill="#DB614D"/>
<path d="M235.304 33.5178C235.304 33.5178 235.419 32.0351 235.648 31.1108C235.648 31.1108 235.247 29.1659 236.335 28.1068C236.335 28.1068 237.939 28.3379 239.658 28.3379C241.377 28.3379 242.561 28.1068 242.561 28.1068C242.561 28.1068 243.382 28.8578 243.286 30.8027C243.286 30.8027 243.668 32.1506 244.012 33.4793C244.012 33.4793 246.246 25.411 239.181 25.411C232.02 25.411 235.304 33.5178 235.304 33.5178Z" fill="#0E3944"/>
<path d="M252.338 42.3756V60.9192L251.822 67.3123C251.822 67.3123 251.956 68.1018 252.338 72.0685C252.72 76.0353 254.114 95.4455 254.114 95.4455C250.676 95.8306 246.857 95.4455 246.857 95.4455C246.857 95.4455 244.184 61.6895 244.088 59.552C244.012 57.4339 245.406 40.0841 245.406 40.0841C247.468 39.8338 252.338 42.3756 252.338 42.3756Z" fill="#8B383E"/>
<path d="M244.337 38.6785C244.337 38.6785 246.475 37.9275 247.354 38.0816C248.232 38.2356 250.695 39.8531 250.428 40.8544C250.218 41.5669 248.9 41.3936 247.869 42.3179C246.857 43.2422 244.279 55.3351 244.279 55.3351C243.095 46.8046 244.337 38.6785 244.337 38.6785Z" fill="#662C33"/>
<path d="M233.91 38.6592C233.91 38.6592 230.95 44.9559 230.95 48.5761C230.95 52.177 229.805 93.1348 229.805 93.1348H226.998C226.998 93.1348 225.012 54.7958 227.666 38.6592H233.91Z" fill="#8B383E"/>
<path d="M230.855 52.8703C230.855 52.8703 230.072 44.879 230.091 44.359C230.11 43.8391 231.199 39.4487 231.199 39.4487L229.537 38.6592C229.537 38.6592 230.626 36.9262 231.638 36.9454C232.669 36.9647 235.209 37.4846 235.648 38.0623C236.106 38.64 232.497 40.9315 230.855 52.8703Z" fill="#662C33"/>
<path d="M252.338 42.3757C252.338 42.3757 257.035 48.788 257.035 49.5004C257.035 50.1937 257.035 50.1937 257.035 50.1937C257.035 50.1937 262 62.999 262 63.7307C262 64.4432 256.539 76.6131 255.641 76.4398C254.744 76.2857 253.082 81.5619 253.082 81.5619C253.082 81.5619 252.204 76.382 251.287 74.4564L253.216 70.8555L253.35 69.3343L256.634 63.8463L251.574 53.6598C250.81 46.2847 252.338 42.3757 252.338 42.3757Z" fill="#662C33"/>
<path d="M239.085 24.8911C240.269 24.814 242.561 24.6022 244.528 25.9694C246.494 27.3366 243.382 29.6088 240.995 29.4548C240.995 29.4548 241.377 29.4548 241.682 28.9734C241.682 28.9734 239.773 29.7629 237.672 29.4548C237.672 29.4548 239.085 29.397 239.658 29.1082C239.658 29.1082 236.87 29.0119 235.209 28.8193C234.369 28.723 232.669 25.3147 239.085 24.8911Z" fill="#0E3944"/>
<path d="M237.863 38.6784C237.863 38.6784 238.914 39.7375 241.721 38.6784C241.721 38.6784 242.255 38.3511 242.561 38.6784C242.866 39.0251 243.439 40.8544 243.439 40.8544C243.439 40.8544 241.587 43.9931 239.372 43.6465C237.176 43.3192 236.317 40.2767 236.317 40.2767C236.317 40.2767 236.928 38.2933 237.863 38.6784Z" fill="#0D527C"/>
<path d="M66.0021 56.6636C66.0021 56.6636 83.5319 52.0614 82.7108 62.3249C81.8897 72.5884 87.9812 99.4892 87.9812 99.4892C87.9812 99.4892 64.6845 93.385 61.4191 94.8678L66.0021 56.6636Z" fill="#4C1E27"/>
<path d="M79.8274 105.362C79.8274 105.362 83.0737 113.296 78.6053 130.954H75.9701C75.9701 130.954 75.149 107.789 74.6143 105.362C74.1751 103.437 73.3731 96.8319 73.1248 91.2091V91.1899C73.0994 90.6635 73.0803 90.1436 73.0675 89.6301C72.9148 89.6686 72.7557 89.6943 72.5902 89.7071C72.4629 89.72 72.3292 89.72 72.1891 89.7071C72.1637 89.7071 72.1382 89.7071 72.1128 89.7071C72.2655 92.1527 72.3419 94.9063 72.3419 97.4481C72.3419 101.01 72.2082 104.149 72.0555 105.382C71.7499 107.808 73.4113 130.992 73.4113 130.992L70.7761 130.915C64.6082 113.065 66.8233 105.208 66.8233 105.208C66.8233 105.208 61.19 89.1487 62.4695 83.4681C63.7298 77.8068 66.6705 73.609 66.6705 73.609L71.5781 74.4178L71.6354 74.3215L72.0173 74.3985H72.0746V74.4178L77.1731 75.4191C77.1731 75.4191 78.338 77.3832 79.6556 80.4834C79.7192 80.6247 79.7829 80.7723 79.8465 80.9263C80.3621 82.1972 80.8968 83.6415 81.3933 85.2012C83.1883 90.901 79.8274 105.362 79.8274 105.362Z" fill="#CFD8DC"/>
<path d="M71.8836 86.9152C72.0555 87.8395 72.3037 88.783 72.5902 89.7073C72.4629 89.7202 72.3292 89.7202 72.1892 89.7073C70.1459 83.1603 71.158 76.5169 71.1771 76.4399L71.5399 76.4976C71.5399 76.5554 70.8334 81.2154 71.8072 86.5493C71.9218 86.5108 72.0555 86.4338 72.1892 86.2798C72.3801 86.0294 72.552 85.471 72.2464 84.3156C71.6163 81.7738 72.2083 76.8057 72.2273 76.5939L72.6093 76.6324C72.6093 76.6902 71.9982 81.7546 72.6284 84.2193C72.8957 85.2784 72.8384 86.0487 72.4756 86.5301C72.2846 86.7804 72.0555 86.8767 71.8836 86.9152Z" fill="#B5C4C9"/>
<path d="M79.8464 80.9263C76.8675 80.2524 75.3398 76.7092 75.2825 76.5552L75.6262 76.4011C75.6453 76.4397 77.0393 79.6747 79.6554 80.4835C79.7191 80.6247 79.7827 80.7723 79.8464 80.9263Z" fill="#B5C4C9"/>
<path d="M76.2756 38.8902C81.0113 39.5449 82.348 43.1843 82.2526 46.4964C82.1571 49.8084 81.7752 67.3123 81.7752 67.3123C81.7752 67.3123 72.7811 70.1429 69.7831 62.9219C66.7851 55.6816 66.4414 51.6378 68.4464 49.1152C68.8665 48.5953 69.0766 47.0355 69.3057 45.0137C69.7831 40.9121 72.0173 38.2933 76.2756 38.8902Z" fill="#0C476B"/>
<path d="M89.7572 82.8712C89.8336 84.7968 88.3824 89.7649 87.9814 88.8984C86.6065 86.0292 89.7572 82.8712 89.7572 82.8712Z" fill="#4C1E27"/>
<path d="M54.6211 67.3123C54.3729 66.3687 57.4282 61.5932 58.2875 62.2479C58.2875 62.2479 58.0011 69.1994 57.0463 69.3919C56.0915 69.5845 54.6211 67.3123 54.6211 67.3123Z" fill="#4C1E27"/>
<path d="M66.155 66.5613C66.155 66.5613 59.8153 73.301 58.1921 72.9158C56.569 72.55 56.3208 69.2187 56.3208 69.2187L65.2575 52.2925L66.155 66.5613Z" fill="#662C33"/>
<path d="M85.2124 76.1123C87.0456 76.016 88.325 77.5373 88.8024 80.1946C89.2989 82.8327 92.9462 90.0152 92.9462 90.0152L91.705 91.0743C89.2607 88.7443 85.3461 82.5439 84.5823 79.848C84.4295 79.2896 83.3792 76.1893 85.2124 76.1123Z" fill="#FF8B66"/>
<path d="M55.9389 68.121C55.0223 65.4829 54.7358 58.1271 55.4042 54.815L57.0273 54.9691C57.0273 54.9691 58.0967 62.9604 59.2042 65.4059C60.3118 67.8514 60.1208 69.8348 58.5741 70.8361C57.0082 71.8182 56.1298 68.6794 55.9389 68.121Z" fill="#FF8B66"/>
<path d="M84.1431 54.9305C84.1431 54.9305 86.1672 60.977 86.4728 71.3175C86.4728 71.3175 86.9693 71.8182 86.8929 72.2033C86.8356 72.5884 87.4085 73.4164 87.2748 73.5897C87.1602 73.7438 89.7572 82.8712 89.7572 82.8712C89.7572 82.8712 87.5994 84.9123 87.9813 88.8984L83.6466 79.848C83.6466 79.848 82.3481 57.222 84.1431 54.9305Z" fill="#662C33"/>
<path d="M66.8423 74.0904C66.8423 74.0904 77.0967 74.2637 77.3258 75.3228C77.555 76.4012 75.1871 77.9802 71.368 77.5565C67.5298 77.1522 66.1549 75.5732 66.1549 75.5732L66.8423 74.0904Z" fill="#662C33"/>
<path d="M77.0013 75.6116C77.0013 75.6116 71.3872 77.6143 66.1168 73.5897C66.1168 73.5897 65.1238 53.236 66.9952 51.8688C67.8163 51.2719 69.4203 51.7533 70.9862 52.485C72.9912 53.4286 74.9008 54.7765 74.9008 54.7765C74.9008 54.7765 78.3762 54.2758 81.126 54.5839C82.8637 54.7765 84.3149 55.2771 84.3722 56.4518C84.5441 59.4557 77.0013 75.6116 77.0013 75.6116Z" fill="#FF8B66"/>
<path d="M81.2787 54.6224C80.0948 54.5069 79.8848 55.3927 78.7008 55.8356C77.5169 56.2592 76.1038 56.6058 75.5691 56.6443C75.0345 56.7021 74.748 57.3761 74.748 57.3761C74.748 57.3761 74.5571 56.471 74.2706 56.394C73.9842 56.317 71.5018 53.7944 70.9862 52.485C72.9912 53.4286 74.9008 54.7765 74.9008 54.7765C74.9008 54.7765 78.3762 54.2758 81.126 54.5839C81.2278 54.6096 81.2787 54.6224 81.2787 54.6224Z" fill="#EF6E4B"/>
<path d="M78.9299 48.9418C76.9822 52.2539 77.4786 55.0653 77.4786 55.0653C74.4997 56.3169 73.3922 54.2565 73.3922 54.2565C74.9007 53.467 74.4615 48.0368 74.4615 48.0368C74.4615 48.0368 80.2475 46.7274 78.9299 48.9418Z" fill="#EF6E4B"/>
<path d="M79.8657 46.169C79.8657 46.169 80.9732 44.8789 81.2405 46.2846C81.527 47.9021 80.0948 48.6916 79.7702 48.1909C79.4456 47.6903 79.8657 46.169 79.8657 46.169Z" fill="#FF8B66"/>
<path d="M71.8073 48.8842C71.5591 49.4234 70.0314 48.8842 70.0887 47.2282C70.1269 45.784 71.4254 46.9201 71.4254 46.9201C71.4254 46.9201 72.0556 48.345 71.8073 48.8842Z" fill="#FF8B66"/>
<path d="M71.2343 45.7454C71.0243 43.011 72.17 41.2394 75.168 41.0084C78.1661 40.7773 79.6746 42.337 79.8656 45.0714C80.2666 50.3668 78.8917 52.2347 76.2183 52.4465C73.4494 52.6583 71.6544 51.4259 71.2343 45.7454Z" fill="#FF8B66"/>
<path d="M72.9339 47.1125C73.2776 47.151 73.5259 47.4014 73.5068 47.671C73.4686 47.9598 73.1822 48.1524 72.8384 48.1139C72.4947 48.0753 72.2274 47.825 72.2656 47.5554C72.2847 47.2858 72.5902 47.0933 72.9339 47.1125Z" fill="#DB614D"/>
<path d="M78.3188 46.6889C78.6626 46.6504 78.9681 46.8237 79.0063 47.1126C79.0445 47.3822 78.7962 47.6325 78.4716 47.6903C78.1279 47.7288 77.8224 47.5555 77.7842 47.2859C77.746 46.997 77.9942 46.7467 78.3188 46.6889Z" fill="#DB614D"/>
<path d="M73.182 44.6863C73.1248 44.6478 73.1248 44.5515 73.163 44.4938C73.5831 43.9739 74.3278 43.9353 74.366 43.9353C74.4424 43.9353 74.4996 43.9931 74.4996 44.0701C74.4996 44.1472 74.4424 44.2049 74.3851 44.2049C74.366 44.2049 73.7167 44.2434 73.373 44.6671C73.3348 44.7248 73.2584 44.7249 73.2202 44.7056C73.2075 44.7056 73.1948 44.6992 73.182 44.6863Z" fill="#0C476B"/>
<path d="M77.0203 43.8775C77.0012 43.8005 77.0585 43.7427 77.1348 43.7235C77.173 43.7235 77.9178 43.6465 78.3952 44.0894C78.4524 44.1471 78.4524 44.2241 78.4143 44.2819C78.357 44.3397 78.2806 44.3397 78.2233 44.3012C77.8223 43.9353 77.173 43.9931 77.1539 43.9931C77.1285 43.9931 77.1094 43.9931 77.0967 43.9931C77.0585 43.9738 77.0203 43.9353 77.0203 43.8775Z" fill="#0C476B"/>
<path d="M73.9078 45.4951C74.0987 45.4759 74.2706 45.7454 74.2897 46.0728C74.3088 46.4194 74.1751 46.7083 74.0032 46.7083C73.8123 46.7275 73.6404 46.4579 73.6213 46.1306C73.6022 45.8032 73.7168 45.5144 73.9078 45.4951Z" fill="#1A4850"/>
<path d="M77.6887 45.2254C77.8606 45.2061 78.0324 45.4757 78.0706 45.8031C78.0897 46.1497 77.956 46.4193 77.7842 46.4385C77.5932 46.4578 77.4214 46.1882 77.4023 45.8609C77.3641 45.5142 77.4977 45.2447 77.6887 45.2254Z" fill="#1A4850"/>
<path d="M76.0465 50.1358C75.149 50.3283 74.557 49.1152 74.557 49.1152C75.4545 49.5003 77.0967 49.1345 77.0967 49.1345C77.0967 49.1345 76.944 49.9625 76.0465 50.1358Z" fill="#1A4850"/>
<path d="M74.4998 45.8995C74.4998 45.8995 74.1943 45.0907 73.8888 45.1677C73.5641 45.264 73.3732 45.9765 73.3732 45.9765L72.8767 45.7647L73.3541 45.7839C73.3541 45.7839 73.5451 45.033 73.8697 45.0137C74.328 44.9752 74.4998 45.8995 74.4998 45.8995Z" fill="#1A4850"/>
<path d="M77.6124 44.8211C77.937 44.8019 78.2235 45.5143 78.2235 45.5143L78.7009 45.418L78.2426 45.7069C78.2426 45.7069 77.9561 45.0137 77.6315 44.9944C77.2878 44.9559 77.1159 45.8032 77.1159 45.8032C77.1159 45.8032 77.1541 44.8596 77.6124 44.8211Z" fill="#1A4850"/>
<path d="M75.3019 47.3629C75.2828 47.0741 75.4164 46.7852 75.6456 46.7082C75.722 46.6697 75.932 46.6312 76.1421 46.9008L75.9129 47.0741C75.8493 46.997 75.792 46.9649 75.7411 46.9778C75.6647 47.0163 75.5692 47.1704 75.5883 47.3244C75.6074 47.4399 75.6647 47.594 75.9129 47.6325L75.8556 47.9213C75.7793 47.9085 75.7092 47.8892 75.6456 47.8636C75.4546 47.7673 75.321 47.5747 75.3019 47.3629Z" fill="#DB614D"/>
<path d="M75.5691 41.3935C75.5691 41.3935 72.3228 47.3052 70.6042 46.4964C70.6042 46.4964 70.1459 40.1804 75.1108 40.1804C80.0947 40.1804 81.0686 43.011 81.0495 45.8032C81.0495 45.8032 80.3621 46.8238 79.751 46.689C79.751 46.689 80.5149 41.5283 75.5691 41.3935Z" fill="#0C476B"/>
<path d="M94.3592 91.2668C94.3592 91.2668 94.4165 91.3823 94.512 91.5749C94.9512 92.4414 96.097 94.8099 95.8678 95.195C95.6387 95.5994 95.5623 94.7906 94.7412 93.5582C94.7603 93.616 95.314 95.6764 94.8366 96.1193C94.4929 96.4274 94.913 95.946 93.9391 93.7123C93.9391 93.7123 94.2256 95.3491 93.8818 95.7342C93.5763 96.0808 93.5763 95.6379 93.4427 95.0602C93.4299 94.9832 93.4108 94.9062 93.3854 94.8292C93.3854 94.8292 93.1944 95.2335 92.908 94.4055C92.6406 93.693 92.0105 92.3259 91.3612 91.3823C91.0748 90.9779 90.9984 90.4388 91.2466 89.9959C91.3612 89.7648 91.5904 89.553 91.9341 89.4567C93.6336 88.9945 93.8246 90.7661 95.8869 91.0164C95.8869 91.0164 96.0206 91.5749 94.3592 91.2668Z" fill="#FF8B66"/>
<path d="M93.0033 90.9202C93.6907 91.5171 94.3591 91.2668 94.3591 91.2668C94.3591 91.2668 94.4164 91.3824 94.5119 91.5749C93.4043 91.8638 93.0033 90.9202 93.0033 90.9202Z" fill="#EF6E4B"/>
<path d="M93.4427 95.0603C93.43 94.9833 93.4109 94.9062 93.3854 94.8292C93.5 94.4441 93.099 93.3272 93.0417 93.1347C93.1563 93.3657 93.8437 94.8485 93.4427 95.0603Z" fill="#EF6E4B"/>
<path d="M84.3723 58.6855C83.6848 62.9026 81.4506 78.5963 71.8646 76.5744C71.8264 76.5616 71.7818 76.5552 71.7309 76.5552C71.6036 76.5295 71.4827 76.5038 71.3681 76.4781C62.3931 74.514 65.0665 73.5897 65.0665 73.5897C65.0665 73.5897 61.4193 50.9637 68.5992 51.657C68.5992 51.657 73.8696 58.3196 73.9842 60.9769C74.0033 61.1117 73.9842 61.2465 73.9651 61.3813C73.9842 61.3043 74.0988 60.9769 74.538 60.4185C75.3591 59.3594 77.326 57.4338 81.928 54.6994C81.928 54.6994 85.0788 54.4684 84.3723 58.6855Z" fill="#FFB878"/>
<path d="M84.1431 54.9306C85.0024 56.6251 84.3532 66.3687 84.3723 69.2571C84.4105 72.1455 87.9814 99.4893 87.9814 99.4893C87.4085 100.259 86.4728 100.645 86.4728 100.645C86.4728 100.645 78.4144 75.5731 78.3953 69.4112C78.3762 63.2492 81.2788 54.2373 81.2788 54.2373C83.723 54.3721 84.1431 54.9306 84.1431 54.9306Z" fill="#8B383E"/>
<path d="M69.5158 51.8881C69.5158 51.8881 69.8022 62.8833 69.5158 65.117C69.2293 67.3508 66.976 79.771 65.7539 84.0266C64.5127 88.2629 62.966 96.986 62.966 96.986L61.4192 94.8678C61.4192 94.8678 60.4644 86.2988 61.4192 81.9662C62.3931 77.6335 63.5006 74.5333 63.6152 73.5897C63.7298 72.6269 62.9469 58.7048 65.2574 52.2925C65.2574 52.2925 67.2625 50.906 69.5158 51.8881Z" fill="#8B383E"/>
<path d="M74.5379 60.4186C74.3852 61.1311 74.0223 61.9783 73.6404 62.8641C73.1821 63.9232 72.7238 65.0208 72.6093 65.8873C72.552 66.388 72.552 67.1582 72.552 68.121C72.5711 70.3547 72.5902 73.609 71.7309 76.5552C71.6036 76.5295 71.4826 76.5039 71.368 76.4782C72.1892 73.5705 72.1892 70.3355 72.1701 68.121C72.1701 67.139 72.1701 66.3687 72.2273 65.8295C72.361 64.9053 72.8193 63.7884 73.2967 62.7101C73.5449 62.0939 73.8123 61.4969 73.9841 60.977C74.0032 61.1118 73.9841 61.2466 73.965 61.3814C73.9841 61.3044 74.0987 60.977 74.5379 60.4186Z" fill="#F2A668"/>
<path d="M58.8986 63.7691C58.8986 63.7691 58.9559 63.1529 59.1469 62.9218C59.3378 62.6715 60.9991 65.4636 60.9991 65.4636C60.9991 65.4636 60.1017 73.1661 58.1921 72.9157C56.2825 72.6654 54.6212 67.3122 54.6212 67.3122C55.9579 68.6987 58.2876 62.2479 58.2876 62.2479L58.8986 63.7691Z" fill="#662C33"/>
<path d="M72.0746 76.6129C75.4927 77.8068 76.4284 91.6327 76.4284 91.6327C75.8556 92.2489 75.7983 91.6327 75.7983 91.6327C76.0465 85.9329 73.6596 78.2689 72.0364 77.6335L72.0746 76.6129Z" fill="#662C33"/>
<path d="M72.4183 76.613C72.4183 76.613 72.6474 77.9802 71.368 77.8839C70.0695 77.7877 69.974 76.7671 70.5469 76.2857C71.1198 75.8043 72.4183 76.613 72.4183 76.613Z" fill="#4C1E27"/>
<path d="M71.368 52.2924C73.9268 58.9936 70.3177 62.6137 70.3177 62.6137C70.3177 62.6137 70.6996 58.6662 68.8855 55.4697C67.0715 52.2539 67.186 50.4824 68.981 48.9034L71.368 52.2924Z" fill="#0C476B"/>
<path d="M70.6614 130.588C70.6614 130.588 70.2795 129.163 71.9026 128.893C73.2584 128.682 73.2393 130.299 73.2393 130.299C73.2393 130.299 73.0866 129.818 73.6976 129.721C73.6976 129.721 74.1941 133.187 74.9007 133.938C76.161 135.286 75.5308 136.731 75.5308 136.731H70.1649C69.4966 135.44 70.3368 134.42 70.5087 133.611C70.776 132.282 69.8976 130.299 69.8976 130.299C70.4705 130.068 70.6614 130.588 70.6614 130.588Z" fill="#4C1E27"/>
<path d="M70.3749 134.728C70.3749 134.728 71.8453 132.822 74.8433 134.343C74.8433 134.343 74.9579 135.691 73.5639 135.44C72.1699 135.19 71.3297 136.211 70.3749 134.728Z" fill="#662C33"/>
<path d="M79.14 130.299C79.14 130.299 78.739 132.514 79.2927 133.226C79.9038 134.054 83.0546 134.15 81.5269 136.731H76.161C76.161 136.731 75.3399 136.172 75.6455 133.938C75.9319 132.013 75.3399 129.721 75.3399 129.721C75.9319 129.818 76.161 130.299 76.161 130.299C76.161 130.299 76.1419 128.682 77.4977 128.893C79.1209 129.163 78.739 130.588 78.739 130.588C78.739 130.588 78.9108 130.241 79.14 130.299Z" fill="#4C1E27"/>
<path d="M76.8677 134.728C76.8677 134.728 78.6436 132.956 81.4506 134.651C81.4506 134.651 81.4506 135.691 80.0376 135.44C78.6436 135.19 77.8225 136.211 76.8677 134.728Z" fill="#662C33"/>
<path d="M59.0323 51.58C59.0323 51.58 59.0323 51.58 58.173 53.5441C57.3137 55.489 57.0463 55.2387 55.9197 55.5083C54.8885 55.7393 54.2393 53.8715 54.182 53.0242C54.1247 52.3117 52.9981 50.906 53.1126 50.3091C53.1508 50.0588 53.3036 50.1936 53.6091 50.6942C53.9528 51.2719 54.4684 51.6763 54.4684 51.6763C54.8503 51.0216 53.38 49.0767 53.8765 48.4413C54.1247 48.1332 54.793 50.9831 55.2513 51.0601C55.2513 51.0601 55.4041 50.8483 55.175 49.4233C55.0604 48.5953 54.9076 47.748 55.1368 47.594C55.5378 47.3051 55.4996 49.0767 56.2061 50.9446C56.2061 50.9446 56.2252 50.0395 56.187 49.1922C56.1488 48.4413 56.0343 47.7288 56.378 47.7288C56.6453 47.748 56.6835 48.9419 56.7217 49.7122C56.8172 51.1371 57.18 52.1577 57.4092 52.6584C57.5237 52.9087 57.6001 53.0435 57.6001 53.0435C58.6504 51.1179 59.0323 51.58 59.0323 51.58Z" fill="#FF8B66"/>
<path d="M57.6001 53.0434C57.6001 53.0434 56.7026 53.3323 56.4735 54.0062C56.4735 54.0062 56.2825 52.9279 57.4091 52.6583C57.5237 52.9086 57.6001 53.0434 57.6001 53.0434Z" fill="#EF6E4B"/>
<path d="M189.188 60.4186L190.181 76.9019C189.551 83.0446 184.453 96.3121 184.453 96.3121L182.658 95.33C182.658 95.33 183.689 91.0359 184.376 86.3181C185.083 81.6196 186.228 76.4205 186.228 76.4205C185.98 66.4266 183.364 61.6318 185.98 57.9346L189.188 60.4186Z" fill="#FF8B66"/>
<path d="M185.751 42.1061C188.749 37.6579 195.528 38.717 197.648 41.8943C200.226 45.7647 198.125 54.1797 198.125 54.1797C198.125 54.1797 190.831 49.8278 186.419 57.0103C186.419 57.0103 182.371 47.0934 185.751 42.1061Z" fill="#CE364C"/>
<path d="M193.924 49.2308C193.924 49.2308 193.962 52.5236 195.528 55.3157C195.528 55.3157 194.592 57.4724 191.537 56.4904C191.537 56.4904 191.785 53.6597 189.532 50.5402C188.023 48.4413 193.924 49.2308 193.924 49.2308Z" fill="#EF6E4B"/>
<path d="M188.023 49.5775C187.794 50.1359 186.247 49.6352 186.228 47.9792C186.209 46.5543 187.546 47.6326 187.546 47.6326C187.546 47.6326 188.253 49.019 188.023 49.5775Z" fill="#FF8B66"/>
<path d="M195.986 46.7276C195.986 46.7276 197.056 45.3796 197.361 46.7853C197.724 48.4029 196.311 49.2309 195.967 48.7495C195.624 48.2488 195.986 46.7276 195.986 46.7276Z" fill="#FF8B66"/>
<path d="M192.32 53.0821C189.647 53.3902 187.947 51.8112 187.336 46.535C187.03 43.8199 188.214 41.9906 191.193 41.644C194.191 41.2974 195.643 42.8186 195.948 45.553C196.597 51.2143 195.07 52.774 192.32 53.0821Z" fill="#FF8B66"/>
<path d="M195.28 47.5171C195.356 47.7867 195.146 48.0948 194.821 48.1911C194.497 48.2874 194.172 48.1526 194.077 47.883C194 47.6134 194.21 47.3246 194.535 47.2283C194.879 47.132 195.203 47.2668 195.28 47.5171Z" fill="#DB614D"/>
<path d="M189.799 48.3065C189.818 48.5954 189.551 48.8265 189.207 48.8457C188.864 48.865 188.577 48.6532 188.558 48.3643C188.558 48.0947 188.826 47.8637 189.169 47.8444C189.513 47.8251 189.799 48.037 189.799 48.3065Z" fill="#DB614D"/>
<path d="M193.809 44.9175C193.752 44.9368 193.695 44.9368 193.638 44.8983C193.237 44.5517 192.587 44.648 192.568 44.648C192.492 44.6672 192.435 44.6094 192.415 44.5324C192.415 44.4554 192.454 44.3976 192.53 44.3784C192.568 44.3784 193.313 44.2628 193.809 44.6865C193.867 44.7442 193.886 44.8213 193.829 44.879C193.829 44.8919 193.822 44.9047 193.809 44.9175Z" fill="#CE364C"/>
<path d="M189.857 44.9367C189.844 44.9624 189.825 44.9752 189.799 44.9752C189.799 44.9752 189.131 45.033 188.806 45.4566C188.768 45.5144 188.692 45.5337 188.615 45.4952C188.558 45.4374 188.558 45.3604 188.596 45.3026C188.997 44.7634 189.742 44.7057 189.78 44.7057C189.857 44.6864 189.914 44.7442 189.914 44.8212C189.914 44.879 189.895 44.9175 189.857 44.9367Z" fill="#CE364C"/>
<path d="M193.676 46.381C193.714 46.7276 193.599 47.0164 193.409 47.0357C193.237 47.0549 193.046 46.8046 193.007 46.458C192.969 46.1306 193.084 45.8418 193.275 45.8225C193.466 45.8033 193.638 46.0536 193.676 46.381Z" fill="#1A4850"/>
<path d="M189.952 46.8238C189.99 47.1511 189.876 47.44 189.685 47.4592C189.513 47.4785 189.322 47.2282 189.284 46.9008C189.246 46.5542 189.379 46.2653 189.551 46.2461C189.742 46.2268 189.914 46.4772 189.952 46.8238Z" fill="#1A4850"/>
<path d="M190.811 50.0011C190.811 50.0011 192.511 50.0396 193.313 49.5004C193.313 49.5004 192.969 50.7906 192.053 50.7906C191.136 50.7713 190.811 50.0011 190.811 50.0011Z" fill="#1A4850"/>
<path d="M193.218 45.3411C193.542 45.3026 193.867 45.9958 193.867 45.9958L194.325 45.8803L193.886 46.1884C193.886 46.1884 193.561 45.5144 193.237 45.4952C192.912 45.4759 192.759 46.3232 192.759 46.3232C192.759 46.3232 192.759 45.3796 193.218 45.3411Z" fill="#1A4850"/>
<path d="M190.181 46.7276C190.181 46.7276 189.838 45.9381 189.532 46.0343C189.227 46.1306 189.055 46.8624 189.055 46.8624L188.558 46.6505L189.036 46.6698C189.036 46.6698 189.188 45.8996 189.513 45.861C189.971 45.8033 190.181 46.7276 190.181 46.7276Z" fill="#1A4850"/>
<path d="M191.995 48.4799C191.945 48.5184 191.887 48.5505 191.824 48.5762L191.709 48.3066C191.938 48.2103 191.976 48.0562 191.976 47.9407C191.957 47.7867 191.843 47.6519 191.747 47.6326C191.696 47.6198 191.652 47.6583 191.614 47.7481L191.346 47.6134C191.499 47.3245 191.709 47.3245 191.804 47.3438C192.034 47.3823 192.225 47.6326 192.263 47.9022C192.282 48.1333 192.186 48.3451 191.995 48.4799Z" fill="#DB614D"/>
<path d="M192.072 42.0868C192.072 42.0868 188.386 43.1459 188.062 47.8252C187.756 52.5236 185.216 53.1206 185.216 53.1206C185.216 53.1206 181.55 37.6194 192.263 39.1599C192.263 39.1599 194.535 38.8903 196.426 41.0855C198.316 43.3 196.082 47.8252 196.082 47.8252C196.082 47.8252 195.91 45.7262 195.528 45.3411C195.528 45.3411 193.389 44.5516 192.072 42.0868Z" fill="#CE364C"/>
<path d="M204.293 104.997C204.293 104.997 206.928 111.717 201.925 129.625L199.29 129.702C199.29 129.702 199.538 107.615 199.061 105.189C198.679 103.09 197.991 95.3878 198.01 89.4569C197.679 89.4826 197.361 89.4634 197.056 89.3992C197.266 95.3108 196.846 103.052 196.521 105.151C196.139 107.596 197.113 129.664 197.113 129.664H194.478C188.883 111.948 191.289 105.151 191.289 105.151C191.289 105.151 186.992 90.6701 188.443 84.9318C189.876 79.1934 192.033 75.1496 192.033 75.1496L197.056 74.1291V74.1098L197.113 74.1291L197.495 74.0328L197.552 74.1291L202.402 73.3203C202.402 73.3203 205.63 77.5374 207.253 83.218C208.876 88.8985 204.293 104.997 204.293 104.997Z" fill="#FF8B66"/>
<path d="M202.918 73.4551C197.628 77.4796 192.014 75.4962 192.014 75.4962C192.014 75.4962 190.563 73.0315 188.558 68.1982C187.26 67.1391 186.973 65.6178 187.03 64.3662C186.037 61.7666 184.739 59.9565 185.407 58.6471C185.961 57.5303 187.832 56.837 189.647 56.2208C189.799 56.1823 189.952 56.1374 190.105 56.0861C191.231 55.7202 192.301 55.3928 192.969 55.027C194.134 54.4108 195.012 53.8331 195.681 53.2361C195.961 52.9922 196.209 52.7419 196.425 52.4852C197.438 51.3298 197.953 50.0204 198.736 48.1525C199.042 47.4015 203.414 45.1871 203.663 58.8589C203.758 63.8078 203.013 64.3277 202.823 68.0634C202.67 71.1444 202.918 73.4551 202.918 73.4551Z" fill="#8BBDDB"/>
<path d="M203.949 136.731H197.762C197.762 136.731 196.96 134.285 198.259 132.668C199.271 131.397 197.877 129.664 199.004 128.99C199.29 128.816 199.5 129.105 199.634 129.413C199.697 129.285 199.761 129.144 199.825 128.99C200.035 128.412 202.116 128.412 202.154 129.664C202.154 129.664 202.632 128.624 203.071 129.452C203.357 129.991 202.956 130.781 203.109 131.878C203.262 132.976 204.675 133.303 203.949 136.731Z" fill="#8BBDDB"/>
<path d="M199.462 130.8C201.028 130.203 202.307 131.012 202.307 131.012L202.689 131.724C200.741 130.684 199.29 131.474 199.29 131.474L199.462 130.8Z" fill="#CFD8DC"/>
<path d="M199.29 131.994C200.837 131.377 202.689 132.186 202.689 132.186L203.052 132.937C201.104 131.917 199.023 132.648 199.023 132.648L199.29 131.994Z" fill="#CFD8DC"/>
<path d="M193.218 131.878C193.37 130.781 192.969 129.991 193.256 129.452C193.695 128.624 194.172 129.664 194.172 129.664C194.211 128.412 196.292 128.412 196.502 128.99C196.553 129.144 196.617 129.285 196.693 129.413C196.808 129.105 197.037 128.816 197.323 128.99C198.431 129.664 197.056 131.397 198.068 132.668C199.366 134.285 198.564 136.731 198.564 136.731H192.377C191.652 133.303 193.046 132.976 193.218 131.878Z" fill="#8BBDDB"/>
<path d="M197.037 131.474C197.037 131.474 195.566 130.684 193.638 131.724L194.02 131.012C194.02 131.012 195.299 130.203 196.865 130.8L197.037 131.474Z" fill="#CFD8DC"/>
<path d="M197.285 132.648C197.285 132.648 195.203 131.917 193.256 132.937L193.637 132.186C193.637 132.186 195.471 131.377 197.037 131.994L197.285 132.648Z" fill="#CFD8DC"/>
<path d="M180.118 96.6779C182.142 96.2158 182.161 94.4442 183.88 94.7331C184.243 94.7908 184.472 94.9834 184.624 95.1952C184.911 95.5996 184.892 96.1388 184.644 96.5817C184.09 97.583 183.593 99.0079 183.421 99.7589C183.192 100.606 182.982 100.221 182.982 100.221C182.97 100.298 182.957 100.375 182.944 100.452C182.868 101.049 182.906 101.473 182.562 101.165C182.199 100.818 182.314 99.162 182.314 99.162C181.569 101.492 182.027 101.935 181.665 101.646C181.149 101.261 181.493 99.162 181.493 99.085C180.824 100.394 180.805 101.222 180.557 100.837C180.29 100.471 181.187 98.0066 181.531 97.1016C181.607 96.8898 181.665 96.7742 181.665 96.7742C180.022 97.2556 180.118 96.6779 180.118 96.6779Z" fill="#FF8B66"/>
<path d="M181.531 97.1015C181.607 96.8897 181.665 96.7742 181.665 96.7742C181.665 96.7742 182.333 96.9668 182.963 96.2928C182.963 96.2928 182.658 97.2749 181.531 97.1015Z" fill="#EF6E4B"/>
<path d="M183.154 98.4881C183.116 98.6999 182.829 99.836 182.982 100.221C182.969 100.298 182.957 100.375 182.944 100.452C182.524 100.298 183.059 98.7384 183.154 98.4881Z" fill="#EF6E4B"/>
<path d="M198.564 136.731H197.514C197.018 134.247 198.259 132.668 198.259 132.668C198.813 134.497 198.564 136.731 198.564 136.731Z" fill="#6197AD"/>
<path d="M200.245 22.9462C200.245 22.9462 200.34 22.8307 200.474 22.5996C200.76 22.1182 201.257 21.1554 201.524 19.7497C201.658 18.9987 201.83 17.8048 202.097 17.8433C202.441 17.8626 202.25 18.5558 202.116 19.3068C201.982 20.1348 201.887 21.0398 201.887 21.0398C202.804 19.2683 202.994 17.516 203.357 17.8433C203.548 18.0359 203.319 18.8446 203.09 19.6534C202.689 21.0398 202.823 21.2709 202.823 21.2709C203.281 21.2517 204.293 18.498 204.503 18.8254C204.923 19.5186 203.224 21.2709 203.51 21.9641C203.51 21.9641 204.083 21.6368 204.484 21.0976C204.847 20.6547 205.019 20.5392 205.038 20.7895C205.076 21.3865 203.777 22.6574 203.644 23.3506C203.491 24.1786 202.613 25.9694 201.62 25.6035C200.531 25.1992 200.245 25.4302 199.615 23.3698C199.004 21.3287 199.003 21.3287 199.003 21.3287C199.003 21.3287 199.443 20.9051 200.245 22.9462Z" fill="#FF8B66"/>
<path d="M200.474 22.5996C201.581 23.004 201.257 24.0438 201.257 24.0438C201.104 23.3314 200.245 22.9462 200.245 22.9462C200.245 22.9462 200.34 22.8307 200.474 22.5996Z" fill="#EF6E4B"/>
<path d="M202.479 24.8525C201.925 32.3239 202.383 35.116 201.944 41.0276C201.715 43.9931 203.376 50.078 203.281 52.8316C203.185 55.5853 202.956 57.2221 201.83 57.4146C200.302 57.7035 198.927 52.4465 198.927 52.4465C198.927 52.4465 198.335 40.6618 198.66 38.3125C199.175 34.3843 200.684 24.2748 200.684 24.2748L202.479 24.8525Z" fill="#FF8B66"/>
<path d="M208.131 98.9887C208.055 99.9515 207.998 100.548 207.998 100.548C207.998 100.548 200.646 104.958 198.564 101.396C198.564 101.396 198.221 101.28 197.877 99.2198C197.877 99.2069 197.877 99.2005 197.877 99.2005C197.877 99.1877 197.877 99.1813 197.877 99.1813C197.705 98.1992 197.552 96.7935 197.419 94.7523C197.438 95.2915 197.59 97.7178 197.533 99.6819C197.514 100.337 197.476 100.934 197.419 101.396C197.419 101.396 194.688 104.669 188.062 101.03C188.062 101.03 187.985 100.548 187.871 99.7204C187.546 97.0823 187.031 90.8819 188.482 84.4118C189.15 81.3886 190.258 78.2884 192.014 75.4962C192.014 75.4962 192.473 75.477 193.218 75.4384C193.943 75.3999 194.955 75.3229 196.082 75.1881C196.387 75.1496 196.706 75.1111 197.037 75.0726C198.221 74.8993 199.481 74.6489 200.646 74.3216C201.467 74.0905 202.25 73.8017 202.918 73.4551C202.918 73.4551 205.706 77.0174 207.253 81.5619C207.558 82.4669 207.826 83.4297 207.998 84.4118C208.8 88.8407 208.379 95.8885 208.131 98.9887Z" fill="#105E99"/>
<path d="M207.253 81.5619C203.51 80.7917 201.524 76.7671 200.646 74.3216C201.467 74.0905 202.25 73.8017 202.918 73.4551C202.918 73.4551 205.706 77.0174 207.253 81.5619Z" fill="#0D527C"/>
<path d="M193.218 75.4385C192.626 77.2678 191.652 80.3488 191.193 81.6967C190.907 82.5632 189.704 83.5645 188.482 84.4118C189.15 81.3886 190.258 78.2884 192.015 75.4962C192.015 75.4962 192.473 75.477 193.218 75.4385Z" fill="#0D527C"/>
<path d="M197.419 94.7331C196.177 89.2451 196.063 79.4245 196.082 75.1881C196.387 75.1496 196.706 75.1111 197.037 75.0726C198.278 84.2 196.75 83.6608 196.75 83.6608C196.578 86.9151 197.38 94.3094 197.419 94.7331Z" fill="#0D527C"/>
<path d="M197.533 99.6819C197.514 100.337 197.476 100.934 197.419 101.396C197.419 101.396 194.688 104.669 188.062 101.03C188.062 101.03 187.985 100.548 187.871 99.7204C189.322 100.548 191.461 101.646 193.218 101.877C195.395 102.166 196.903 100.548 197.533 99.6819Z" fill="#0D527C"/>
<path d="M208.131 98.9887C208.055 99.9515 207.998 100.548 207.998 100.548C207.998 100.548 200.646 104.958 198.564 101.396C198.564 101.396 198.221 101.28 197.877 99.2005C197.896 99.2968 198.182 100.664 200.932 101.511C202.88 102.127 206.241 100.221 208.131 98.9887Z" fill="#0D527C"/>
<path d="M202.994 73.975C202.708 75.4384 193.351 76.4783 191.728 75.9776C191.728 75.9776 191.48 75.2844 191.365 74.7837C191.308 74.5334 191.289 74.3216 191.365 74.2831C191.365 74.2831 197.056 74.7645 202.823 71.9916C202.823 71.9916 202.937 72.1264 203.014 72.4345C203.09 72.7618 203.147 73.2432 202.994 73.975Z" fill="#105E99"/>
<path d="M202.994 73.975C202.708 75.4385 193.351 76.4783 191.728 75.9777C191.728 75.9777 191.48 75.2845 191.365 74.7838C191.365 74.7838 196.788 75.3615 203.014 72.4345C203.09 72.7619 203.147 73.2433 202.994 73.975Z" fill="#0C476B"/>
<path d="M197.514 74.3408C197.743 74.8607 197.514 75.7657 197.514 75.7657C197.514 75.7657 195.834 76.1123 195.605 75.9775C195.356 75.8427 195.299 74.6489 195.299 74.6489L197.514 74.3408Z" fill="#8BBDDB"/>
<path d="M199.939 73.3202C200.359 74.052 200.302 75.5925 200.302 75.5925H199.748C199.691 74.2445 199.309 73.455 199.309 73.455L199.939 73.3202Z" fill="#105E99"/>
<path d="M193.16 74.6296H193.733C193.733 74.6296 193.79 75.4576 194.153 76.536H193.657C193.657 76.536 192.931 75.8042 193.16 74.6296Z" fill="#105E99"/>
<path d="M196.426 52.485C195.261 55.0461 193.122 60.226 192.606 64.4238L192.549 64.8667L192.263 64.5201C192.11 64.3083 188.615 59.8216 189.647 56.2207C189.799 56.1822 189.952 56.1373 190.105 56.0859C189.074 58.9743 191.461 62.71 192.301 63.9039C192.836 60.2067 194.516 55.8934 195.681 53.236C195.961 52.9921 196.209 52.7418 196.426 52.485Z" fill="#CFD8DC"/>
<path d="M193.275 65.1556C193.275 65.9066 192.893 66.5036 192.416 66.5036C191.919 66.5036 191.537 65.9066 191.537 65.1556C191.537 64.4239 191.919 63.8077 192.416 63.8077C192.893 63.8077 193.275 64.4239 193.275 65.1556Z" fill="#CFD8DC"/>
<path d="M192.855 65.1557C192.855 65.6564 192.587 66.0608 192.263 66.0608C191.938 66.0608 191.671 65.6564 191.671 65.1557C191.671 64.6551 191.938 64.2507 192.263 64.2507C192.587 64.2507 192.855 64.6551 192.855 65.1557Z" fill="#0C476B"/>
<path d="M171.964 73.1084C171.468 73.8787 168.145 70.5474 168.145 69.0261C168.145 69.0261 171.143 66.7539 172.48 67.5819C173.816 68.4292 171.964 73.1084 171.964 73.1084Z" fill="#B72E48"/>
<path d="M174.198 66.0029C172.537 69.4113 168.47 72.396 168.47 72.396C168.47 72.396 167.457 76.7864 166.178 76.1124C164.899 75.4385 164.326 72.6656 164.326 72.6656L167.076 71.0481L169.806 66.4266C169.806 66.4266 175.86 62.5754 174.198 66.0029Z" fill="#FF8B66"/>
<path d="M164.02 51.1949C164.02 51.1949 175.096 58.3967 177.693 60.5919C177.693 60.5919 178.457 61.9014 177.693 64.1928C176.929 66.5036 175.669 68.487 175.669 68.487C175.669 68.487 175.726 69.4498 175.535 69.546C175.344 69.6423 174.714 69.8927 174.714 70.0852C174.714 70.2778 173.053 71.722 171.964 73.1084C171.964 73.1084 170.36 69.546 168.145 69.0261L171.028 63.9618C171.028 63.9618 170.933 63.8655 170.895 63.7307C170.818 63.4996 171.028 62.9604 171.028 62.9604L165.166 61.2274L164.02 51.1949Z" fill="#CE364C"/>
<path d="M138.222 67.8515L134.785 66.0029C134.823 63.8847 137.401 60.746 138.432 60.9578L138.222 67.8515Z" fill="#B72E48"/>
<path d="M147.121 69.6423C147.121 69.6423 140.781 76.3819 139.158 75.9968C137.535 75.6309 137.286 72.2996 137.286 72.2996C137.286 72.2996 144.791 55.7393 145.574 55.3349C148.725 53.6597 147.121 69.6423 147.121 69.6423Z" fill="#CE364C"/>
<path d="M136.885 71.2021C135.988 68.564 135.682 61.2082 136.351 57.8961L137.993 58.0502C137.993 58.0502 139.062 66.0415 140.17 68.487C141.258 70.9325 141.067 72.9351 139.52 73.9172C137.974 74.8993 137.076 71.7605 136.885 71.2021Z" fill="#FF8B66"/>
<path d="M139.005 54.4108C139.005 54.4108 139.005 54.4108 138.776 56.5482C138.528 58.6664 138.203 58.5123 137.21 59.09C136.293 59.6292 135.109 58.0502 134.804 57.2607C134.537 56.5867 133.047 55.5854 132.971 54.9692C132.952 54.7381 133.143 54.8151 133.563 55.2003C134.078 55.6431 134.689 55.8742 134.689 55.8742C134.842 55.1425 132.856 53.7175 133.143 52.9665C133.295 52.6007 134.785 55.1232 135.243 55.0655C135.243 55.0655 135.319 54.7959 134.689 53.5057C134.326 52.7547 133.945 52.0037 134.097 51.7727C134.403 51.3875 134.899 53.0821 136.121 54.6611C136.121 54.6611 135.873 53.7946 135.587 53.0051C135.319 52.2733 134.995 51.6379 135.339 51.5416C135.606 51.4646 135.988 52.6007 136.255 53.3132C136.752 54.6418 137.42 55.5084 137.783 55.932C137.955 56.1245 138.069 56.2208 138.069 56.2208C138.508 54.0834 139.005 54.4108 139.005 54.4108Z" fill="#FF8B66"/>
<path d="M138.069 56.221C138.069 56.221 137.305 56.7794 137.286 57.4919C137.286 57.4919 136.79 56.5291 137.783 55.9321C137.955 56.1247 138.069 56.221 138.069 56.221Z" fill="#EF6E4B"/>
<path d="M159.514 63.827C157.833 73.8402 156.573 75.9006 150.825 74.5719C145.077 73.224 147.216 66.0415 147.216 66.0415C145.879 69.5846 146.643 71.9146 146.643 71.9146C146.643 71.9146 145.402 69.161 146.242 66.0415C147.101 62.9412 148.553 54.9114 147.884 48.6147C147.216 42.3179 148.457 36.9454 154.644 37.2728C163.619 37.7157 161.194 53.8138 159.514 63.827Z" fill="#0E3944"/>
<path d="M153.212 58.2427C153.212 58.2427 166.98 66.3881 167.075 69.0261C167.19 71.6835 156.955 71.3754 153.709 73.4551C150.462 75.5347 145.841 75.6503 145.516 73.975C144.466 68.4099 153.212 58.2427 153.212 58.2427Z" fill="#B72E48"/>
<path d="M146.624 104.688C146.624 104.688 145.688 89.6109 148.381 84.354C149.068 83.0253 149.718 81.8122 150.309 80.7338C150.373 80.6183 150.437 80.5027 150.5 80.3872C152.162 77.364 153.327 75.4961 153.327 75.4961L155.274 75.5924L155.58 75.6117L157.814 75.7272L157.967 75.7465L158.654 75.7657V74.0712L158.807 74.0519L158.845 74.129L164.211 73.455C164.211 73.455 165.338 75.1303 166.56 77.8069C166.611 77.9224 166.662 78.038 166.713 78.1535C167.362 79.5977 168.011 81.3115 168.565 83.2178C170.188 88.8984 165.586 104.997 165.586 104.997C165.586 104.997 168.24 111.736 163.237 129.625L160.583 129.721C160.583 129.721 160.831 107.615 160.373 105.189C159.991 103.186 158.75 96.0232 158.654 90.2271C158.527 90.2528 158.4 90.2849 158.272 90.3234C158.145 90.349 158.024 90.3747 157.91 90.4004H157.89C157.413 90.4967 157.069 90.5544 157.012 90.5159C155.885 96.3313 152.486 103.918 151.703 105.882C150.768 108.193 146.758 129.895 146.758 129.895L144.18 129.298C142.729 110.754 146.624 104.688 146.624 104.688Z" fill="#FF8B66"/>
<path d="M162.722 73.975C162.741 74.0135 163.982 76.9982 166.56 77.8069C166.611 77.9225 166.662 78.038 166.713 78.1535C163.848 77.4411 162.473 74.1097 162.454 74.0712L162.722 73.975Z" fill="#6097B2"/>
<path d="M150.5 80.3873C153.326 79.617 154.816 76.6708 155.274 75.5925C155.37 75.3614 155.427 75.2074 155.427 75.2074L155.694 75.3037C155.694 75.3037 155.656 75.4192 155.58 75.6118C155.141 76.6516 153.517 80.0407 150.309 80.7339C150.373 80.6184 150.437 80.5028 150.5 80.3873Z" fill="#6097B2"/>
<path d="M159.819 85.2398C159.844 85.1499 159.864 85.0536 159.876 84.9509C159.927 84.784 159.972 84.6043 160.01 84.4118C160.984 80.0406 158.75 75.3614 158.731 75.3229L158.998 75.1881C159.017 75.2266 161.289 80.0021 160.296 84.4695C159.59 87.589 158.75 89.4569 158.272 90.3234C158.145 90.3491 158.024 90.3748 157.909 90.4004C158.272 89.7265 159.112 88.0897 159.819 85.2398Z" fill="#6097B2"/>
<path d="M159.304 84.9125C159.036 84.6044 158.635 83.8149 158.96 82.0625C159.399 79.8673 157.7 75.8236 157.68 75.785L157.948 75.6695C158.024 75.8428 159.685 79.8288 159.246 82.1203C158.922 83.8149 159.323 84.5081 159.514 84.7199C159.666 84.8739 159.838 84.9702 159.991 84.951L160.01 85.2398C159.997 85.2526 159.985 85.2591 159.972 85.2591C159.724 85.2591 159.495 85.1243 159.304 84.9125Z" fill="#6097B2"/>
<path d="M145.956 56.3171C146.013 55.1618 147.464 54.6419 149.202 54.4493C151.952 54.1412 155.427 54.6419 155.427 54.6419C155.427 54.6419 157.337 53.2939 159.342 52.3504C160.908 51.6186 162.512 51.1565 163.333 51.7534C165.204 53.1014 164.211 73.4551 164.211 73.4551C158.941 77.4796 153.327 75.4962 153.327 75.4962C153.327 75.4962 145.784 59.3404 145.956 56.3171Z" fill="#FF8B66"/>
<path d="M149.202 54.4493C151.952 54.1412 155.427 54.6419 155.427 54.6419C155.427 54.6419 157.337 53.294 159.342 52.3504C158.826 53.6598 156.344 56.1824 156.057 56.2594C155.771 56.3364 155.58 57.2415 155.58 57.2415C155.58 57.2415 155.294 56.5675 154.759 56.529C154.224 56.4712 152.811 56.1439 151.627 55.701C150.443 55.2774 150.233 54.3723 149.049 54.5071C149.062 54.5071 149.113 54.4879 149.202 54.4493Z" fill="#EF6E4B"/>
<path d="M165.261 136.731H159.055C159.055 136.731 158.272 134.285 159.552 132.668C160.583 131.397 159.189 129.664 160.297 128.99C160.583 128.816 160.812 129.105 160.946 129.413C161.01 129.285 161.067 129.144 161.118 128.99C161.328 128.412 163.428 128.412 163.466 129.664C163.466 129.664 163.925 128.624 164.383 129.452C164.67 129.991 164.249 130.781 164.421 131.878C164.574 132.976 165.987 133.303 165.261 136.731Z" fill="#F24052"/>
<path d="M160.774 130.8C162.321 130.203 163.619 131.012 163.619 131.012L164.001 131.724C162.053 130.684 160.583 131.474 160.583 131.474L160.774 130.8Z" fill="#ADBEC4"/>
<path d="M160.583 131.994C162.149 131.377 164.001 132.186 164.001 132.186L164.364 132.937C162.416 131.917 160.335 132.648 160.335 132.648L160.583 131.994Z" fill="#ADBEC4"/>
<path d="M143.053 131.878C143.206 130.781 142.805 129.991 143.091 129.452C143.531 128.624 144.008 129.664 144.008 129.664C144.046 128.412 146.128 128.412 146.338 128.99C146.401 129.144 146.465 129.285 146.529 129.413C146.662 129.105 146.872 128.816 147.159 128.99C148.285 129.664 146.891 131.397 147.904 132.668C149.202 134.285 148.4 136.731 148.4 136.731H142.213C141.487 133.303 142.9 132.976 143.053 131.878Z" fill="#F24052"/>
<path d="M146.872 131.474C146.872 131.474 145.421 130.684 143.473 131.724L143.855 131.012C143.855 131.012 145.135 130.203 146.701 130.8L146.872 131.474Z" fill="#ADBEC4"/>
<path d="M147.14 132.648C147.14 132.648 145.058 131.917 143.111 132.937L143.473 132.186C143.473 132.186 145.326 131.377 146.872 131.994L147.14 132.648Z" fill="#ADBEC4"/>
<path d="M155.886 47.9214C155.886 47.9214 155.427 53.3516 156.936 54.1218C156.936 54.1218 155.828 56.1823 152.849 54.9306C152.849 54.9306 153.365 52.1385 151.398 48.8264C150.08 46.5927 155.886 47.9214 155.886 47.9214Z" fill="#EF6E4B"/>
<path d="M150.176 47.2859C149.851 47.7865 148.419 47.0163 148.705 45.3795C148.973 43.9738 150.08 45.2832 150.08 45.2832C150.08 45.2832 150.5 46.7852 150.176 47.2859Z" fill="#FF8B66"/>
<path d="M158.521 46.015C158.521 46.015 159.819 44.8981 159.876 46.3231C159.915 47.9791 158.387 48.5375 158.139 47.9791C157.89 47.4399 158.521 46.015 158.521 46.015Z" fill="#FF8B66"/>
<path d="M153.728 51.5415C151.054 51.3489 149.679 49.4618 150.08 44.1664C150.29 41.4512 151.78 39.8722 154.778 40.1033C157.776 40.3344 158.922 42.106 158.711 44.8403C158.291 50.5209 156.496 51.7533 153.728 51.5415Z" fill="#FF8B66"/>
<path d="M157.68 46.6504C157.718 46.9393 157.451 47.1896 157.107 47.2089C156.783 47.2474 156.477 47.0548 156.458 46.7852C156.42 46.4964 156.687 46.2461 157.012 46.2268C157.356 46.1883 157.661 46.3808 157.68 46.6504Z" fill="#DB614D"/>
<path d="M152.162 46.3808C152.124 46.6504 151.818 46.843 151.474 46.7852C151.15 46.7467 150.901 46.4771 150.94 46.2075C150.978 45.938 151.283 45.7454 151.627 45.8032C151.971 45.8417 152.2 46.1113 152.162 46.3808Z" fill="#DB614D"/>
<path d="M156.745 43.8006C156.687 43.8391 156.611 43.8198 156.573 43.7621C156.229 43.3577 155.58 43.3192 155.58 43.3192C155.503 43.3192 155.446 43.2422 155.446 43.1651C155.446 43.1074 155.503 43.0496 155.58 43.0496C155.618 43.0496 156.363 43.0881 156.783 43.5888C156.821 43.6465 156.821 43.7428 156.764 43.7813C156.751 43.7942 156.745 43.8006 156.745 43.8006Z" fill="#0E3944"/>
<path d="M152.849 43.0881C152.836 43.1009 152.817 43.1074 152.792 43.1074C152.773 43.1074 152.124 43.0303 151.723 43.3962C151.665 43.454 151.589 43.4347 151.532 43.3962C151.493 43.3384 151.493 43.2422 151.551 43.2036C152.028 42.7608 152.792 42.8185 152.811 42.8378C152.887 42.8378 152.945 42.9148 152.926 42.9726C152.926 43.0303 152.906 43.0689 152.849 43.0881Z" fill="#0E3944"/>
<path d="M156.325 45.2255C156.305 45.5721 156.134 45.8224 155.943 45.8224C155.771 45.8032 155.637 45.5144 155.656 45.187C155.694 44.8404 155.847 44.5901 156.038 44.6093C156.229 44.6093 156.363 44.8982 156.325 45.2255Z" fill="#1A4850"/>
<path d="M152.563 44.9174C152.525 45.264 152.353 45.5143 152.181 45.5143C151.99 45.4951 151.856 45.2062 151.875 44.8789C151.914 44.5322 152.085 44.2819 152.257 44.3012C152.448 44.3012 152.582 44.59 152.563 44.9174Z" fill="#1A4850"/>
<path d="M152.849 48.2295C152.849 48.2295 154.491 48.5953 155.389 48.2102C155.389 48.2102 154.816 49.4233 153.899 49.2308C153.002 49.0575 152.849 48.2295 152.849 48.2295Z" fill="#1A4850"/>
<path d="M156.076 44.1086C156.401 44.1278 156.592 44.8981 156.592 44.8981L157.069 44.8596L156.573 45.0907C156.573 45.0907 156.382 44.3589 156.057 44.2819C155.752 44.1856 155.446 44.9944 155.446 44.9944C155.446 44.9944 155.618 44.0701 156.076 44.1086Z" fill="#1A4850"/>
<path d="M152.83 44.8981C152.83 44.8981 152.658 44.0508 152.334 44.0894C152.009 44.1279 151.703 44.8211 151.703 44.8211L151.245 44.513L151.723 44.6285C151.723 44.6285 152.028 43.8968 152.334 43.916C152.792 43.9546 152.83 44.8981 152.83 44.8981Z" fill="#1A4850"/>
<path d="M154.3 46.9586C154.237 46.9843 154.167 47.0035 154.09 47.0164L154.052 46.7275C154.281 46.689 154.358 46.535 154.358 46.4387C154.377 46.2654 154.281 46.1113 154.205 46.0921C154.154 46.0664 154.097 46.0921 154.033 46.1691L153.804 45.9958C154.014 45.7262 154.224 45.784 154.32 45.8032C154.53 45.8995 154.682 46.1883 154.644 46.4579C154.625 46.689 154.491 46.8623 154.3 46.9586Z" fill="#DB614D"/>
<path d="M154.377 40.3344C154.377 40.3344 154.53 42.2408 153.136 43.4347C153.136 43.4347 153.709 42.26 153.747 41.4898C153.747 41.4898 152.601 43.4539 151.551 43.6465C150.5 43.839 148.973 44.4167 148.973 44.4167C148.973 44.4167 149.66 39.7567 154.224 39.4679C158.807 39.179 159.819 42.0482 158.979 45.2062C158.979 45.2062 157.165 44.4167 156.821 42.5874C156.821 42.5874 157.26 43.9931 154.835 43.4347C154.835 43.4347 155.332 41.9712 154.377 40.3344Z" fill="#0E3944"/>
<path d="M169.768 96.2737C155.064 99.3546 144.619 95.4456 144.619 95.4456L150.481 73.4551L150.596 73.07L150.73 72.5693L150.825 72.1457L150.902 71.8954L151.016 71.4717L151.112 71.1251L151.207 70.7785C151.194 70.7657 151.182 70.7528 151.169 70.74C145.994 66.1956 146.338 55.5469 146.338 55.5469C146.968 54.4301 148.247 54.2953 148.247 54.2953C151.322 59.2441 155.771 62.1903 155.771 62.1903C158.578 59.3596 160.545 51.4839 160.545 51.4839C162.302 50.7136 163.715 51.7535 163.715 51.7535C166.77 56.6253 164.784 66.6962 164.44 68.2752C164.415 68.4164 164.402 68.487 164.402 68.487C164.466 68.6154 164.53 68.7502 164.593 68.8914C164.631 68.9813 164.67 69.0711 164.708 69.161C164.835 69.4434 164.962 69.7194 165.09 69.989C165.166 70.1688 165.242 70.3549 165.319 70.5474C165.459 70.8941 165.599 71.2471 165.739 71.6065C170.532 83.8919 169.768 96.2737 169.768 96.2737Z" fill="#FFB878"/>
<path d="M164.593 68.8915L164.268 68.6219C164.058 68.4486 164.001 68.4871 163.887 68.5449C163.638 68.6797 163.371 68.7567 162.817 68.2176C162.626 68.025 162.512 67.9865 162.454 67.9865C162.378 67.9865 162.282 68.102 162.168 68.2176C161.958 68.4679 161.671 68.7952 161.118 68.6797C160.755 68.6027 160.621 68.7375 160.468 68.9108C160.297 69.1226 160.067 69.3729 159.533 69.0841C159.265 68.93 159.036 69.0263 158.712 69.1804C158.349 69.3537 157.89 69.5847 157.337 69.1996C157.203 69.1033 157.146 69.1033 157.146 69.1033C157.108 69.1226 157.031 69.2574 156.993 69.3537C156.878 69.5462 156.745 69.8158 156.458 69.8928C156.229 69.9699 155.962 69.9121 155.618 69.7195C155.064 69.4114 154.912 69.6233 154.644 69.9891C154.396 70.355 154.052 70.8364 153.25 70.4898C152.716 70.278 152.582 70.432 152.353 70.6823C152.143 70.8942 151.894 71.1445 151.417 71.1445C151.315 71.1445 151.213 71.1381 151.112 71.1252L151.207 70.7786C151.194 70.7658 151.182 70.7529 151.169 70.7401C151.665 70.8364 151.856 70.6438 152.066 70.4127C152.315 70.1432 152.62 69.8158 153.384 70.1432C153.919 70.3742 154.09 70.1239 154.339 69.7773C154.606 69.4114 154.95 68.9108 155.79 69.3922C156.038 69.527 156.229 69.5655 156.363 69.527C156.477 69.4885 156.554 69.3344 156.649 69.1804C156.726 68.9878 156.84 68.7952 157.05 68.7375C157.203 68.699 157.375 68.7375 157.566 68.8723C157.929 69.1419 158.196 69.0071 158.54 68.8337C158.883 68.6797 159.265 68.4871 159.724 68.7375C159.991 68.8915 160.029 68.8338 160.182 68.6604C160.354 68.4679 160.602 68.179 161.194 68.2946C161.538 68.3716 161.691 68.179 161.881 67.9672C162.034 67.7939 162.187 67.6206 162.435 67.6014C162.626 67.6014 162.855 67.6976 163.085 67.948C163.486 68.3331 163.581 68.2753 163.696 68.1983C163.887 68.102 164.097 68.025 164.44 68.2753C164.415 68.4165 164.402 68.4871 164.402 68.4871C164.466 68.6155 164.529 68.7503 164.593 68.8915Z" fill="#F2A668"/>
<path fill-rule="evenodd" clip-rule="evenodd" d="M165.739 71.6066C165.376 71.491 165.013 71.2214 164.708 70.9904C164.421 70.7978 164.058 70.509 163.925 70.5667C163.581 70.7015 163.256 70.5282 163.008 70.4127C162.894 70.3549 162.722 70.2779 162.684 70.2971C162.684 70.2971 162.664 70.3164 162.626 70.3742C162.473 70.8363 162.053 70.7593 161.767 70.7015C161.461 70.6438 161.251 70.6245 161.118 70.8171C160.64 71.4525 160.201 71.7414 159.304 71.2792C159.017 71.1252 158.826 71.2407 158.597 71.3755C158.311 71.5295 157.986 71.7221 157.566 71.3947C157.47 71.3177 157.394 71.2985 157.375 71.2985C157.337 71.3177 157.279 71.3947 157.241 71.4718C157.165 71.568 157.088 71.7028 156.936 71.7221C156.764 71.7414 156.668 71.6066 156.649 71.568C156.611 71.5873 156.477 71.6643 156.401 71.7221C156.134 71.9532 155.675 72.319 155.103 71.9147C155.026 71.8762 154.988 71.8569 154.969 71.8569C154.912 71.8761 154.835 72.0687 154.778 72.2035C154.663 72.4538 154.53 72.7619 154.224 72.8582C154.014 72.9352 153.785 72.8775 153.498 72.7042C153.269 72.5501 153.097 72.4923 152.964 72.5309C152.792 72.5886 152.677 72.8004 152.544 73.0508C152.391 73.3204 152.238 73.6285 151.933 73.7632C151.818 73.8146 151.697 73.8403 151.57 73.8403C151.188 73.8403 150.806 73.667 150.481 73.4552L150.596 73.07C150.959 73.3204 151.474 73.5707 151.78 73.4166C151.952 73.3396 152.085 73.1085 152.2 72.8582C152.225 72.8325 152.245 72.8004 152.257 72.7619C152.143 72.9545 152.009 73.0893 151.799 73.0893C151.417 73.0893 151.016 72.8197 150.73 72.5694L150.825 72.1457C151.112 72.3961 151.493 72.7042 151.799 72.7042C151.914 72.7042 152.009 72.4153 152.105 72.1842C152.238 71.8569 152.372 71.4718 152.696 71.3562C152.887 71.292 153.104 71.3306 153.346 71.4718C153.728 71.6836 153.995 71.5103 154.396 71.2022C154.74 70.9519 155.16 70.6245 155.656 71.0096C155.866 71.1637 156.038 71.0674 156.439 70.663C156.477 70.6245 156.522 70.5796 156.573 70.5282C156.306 70.663 156 70.7015 155.618 70.4897C155.217 70.2586 155.064 70.4127 154.797 70.7015C154.549 70.9711 154.186 71.3562 153.518 71.1444C152.792 70.9133 152.582 71.2407 152.315 71.6258C152.219 71.7606 152.105 71.9147 151.99 72.0302C151.875 72.1457 151.742 72.1842 151.589 72.1842H151.532C151.322 72.165 151.092 72.0302 150.901 71.8954L151.016 71.4718C151.188 71.6451 151.398 71.7991 151.57 71.7991C151.627 71.8184 151.684 71.7991 151.723 71.7606C151.818 71.6643 151.914 71.5295 151.99 71.414C152.276 70.9904 152.639 70.4705 153.632 70.7785C154.071 70.9133 154.281 70.7015 154.53 70.4319C154.797 70.1431 155.141 69.7772 155.79 70.1431C156.229 70.3934 156.516 70.1624 156.84 69.8928C157.146 69.6424 157.528 69.3151 158.024 69.6809C158.311 69.912 158.502 69.8157 158.826 69.6424C159.113 69.4884 159.475 69.2958 159.934 69.5462C160.067 69.6232 160.106 69.5847 160.144 69.5654C160.22 69.5076 160.277 69.3729 160.354 69.2381C160.468 69.0262 160.602 68.7759 160.85 68.7181C161.016 68.6796 161.194 68.731 161.385 68.8722C161.557 69.007 161.633 69.007 161.652 69.007C161.691 68.9877 161.748 68.9107 161.805 68.8337C161.881 68.7181 161.996 68.5448 162.187 68.5256C162.359 68.5063 162.531 68.5833 162.741 68.7567C163.085 69.0648 163.237 68.9877 163.447 68.8914C163.638 68.7952 163.887 68.6796 164.268 68.8722C164.402 68.9492 164.555 69.0455 164.708 69.161C164.835 69.4435 164.962 69.7195 165.09 69.9891C164.784 69.7195 164.402 69.3728 164.077 69.1995C163.887 69.1033 163.791 69.161 163.619 69.2381C163.371 69.3536 163.027 69.5076 162.493 69.0455C162.321 68.9107 162.244 68.9107 162.244 68.9107C162.206 68.9107 162.149 68.9877 162.111 69.0455C162.034 69.1803 161.92 69.3343 161.71 69.3729C161.544 69.4114 161.36 69.3536 161.156 69.1995C161.06 69.1225 160.984 69.084 160.927 69.1033C160.85 69.1225 160.755 69.2766 160.678 69.4306C160.602 69.5847 160.507 69.758 160.373 69.8543C160.258 69.9505 160.048 70.0468 159.743 69.8735C159.495 69.7387 159.304 69.835 158.998 69.9891C158.673 70.1624 158.292 70.3742 157.795 69.9891C157.585 69.835 157.451 69.8928 157.184 70.1046C157.413 70.0276 157.7 70.0276 158.005 70.2201C158.521 70.5475 158.788 70.4512 159.074 70.3357C159.342 70.2394 159.628 70.1238 159.953 70.3934C160.048 70.4705 160.106 70.4512 160.411 70.0853C160.64 69.7772 161.003 69.3151 161.519 69.6039C161.805 69.758 161.881 69.681 162.034 69.5654C162.187 69.4499 162.435 69.2573 162.798 69.5654C162.951 69.681 163.085 69.6424 163.333 69.5462C163.619 69.4499 164.02 69.3151 164.44 69.6617C164.669 69.8157 164.86 70.0468 165.051 70.2586C165.153 70.3613 165.242 70.4576 165.319 70.5475C165.459 70.8941 165.599 71.2471 165.739 71.6066ZM162.645 69.912C162.62 69.8992 162.588 69.8799 162.55 69.8543C162.435 69.758 162.416 69.758 162.282 69.8735C162.111 70.0083 161.843 70.2201 161.347 69.9505C161.137 69.835 161.003 69.9313 160.698 70.3164C160.488 70.6052 160.144 71.0289 159.724 70.7015C159.571 70.5667 159.456 70.6052 159.208 70.7015C158.903 70.8171 158.463 70.9711 157.795 70.5475C157.394 70.2971 157.127 70.5282 156.707 70.9326C156.363 71.2792 155.943 71.7028 155.427 71.3177C155.179 71.1252 155.007 71.2214 154.625 71.5103C154.281 71.7799 153.785 72.165 153.155 71.7991C153.015 71.7221 152.907 71.6964 152.83 71.7221C152.677 71.7799 152.563 72.0687 152.467 72.319C152.416 72.4346 152.365 72.5501 152.315 72.6656C152.448 72.4346 152.601 72.2228 152.868 72.165C153.097 72.088 153.384 72.165 153.709 72.3768C153.823 72.4538 153.995 72.5309 154.11 72.4923C154.243 72.4538 154.339 72.242 154.434 72.0494C154.53 71.7991 154.644 71.5681 154.873 71.491C155.013 71.4525 155.166 71.491 155.332 71.6066C155.637 71.8184 155.847 71.6836 156.172 71.4333C156.363 71.26 156.649 71.0289 156.898 71.2792C156.898 71.2664 156.904 71.26 156.917 71.26C156.993 71.1444 157.108 70.9519 157.299 70.9133C157.451 70.8941 157.623 70.9518 157.795 71.0866C158.005 71.2407 158.139 71.1829 158.406 71.0481C158.654 70.8941 159.017 70.6823 159.475 70.9326C160.144 71.2792 160.392 71.1444 160.793 70.586C161.099 70.1816 161.519 70.2586 161.843 70.3164C162.187 70.3934 162.225 70.3742 162.282 70.2586C162.34 70.0853 162.416 69.989 162.55 69.9313C162.569 69.9313 162.607 69.9313 162.645 69.912ZM164.88 70.6438C164.841 70.6052 164.803 70.5667 164.765 70.5282C164.593 70.3164 164.402 70.1046 164.211 69.9505C163.944 69.758 163.734 69.8157 163.466 69.912C163.333 69.9698 163.218 70.0083 163.065 70.0083C163.104 70.0211 163.142 70.0404 163.18 70.0661C163.39 70.1623 163.6 70.2779 163.791 70.2009C164.097 70.0853 164.459 70.3357 164.88 70.6438Z" fill="#F2A668"/>
<path d="M164.02 51.195C167.018 58.9552 167.076 69.0262 167.076 69.0262C167.076 69.0262 165.357 67.4665 162.951 68.0827C162.951 68.0827 162.741 62.017 160.01 56.8756C158.597 54.2375 158.845 51.5994 158.845 51.5994C161.404 50.7714 164.02 51.195 164.02 51.195Z" fill="#F24052"/>
<path d="M150.31 54.0063C150.31 54.0063 151.436 56.7407 149.679 61.9014C148.305 65.9259 147.56 72.2226 147.56 72.2226C145.956 72.7233 145.517 73.9749 145.517 73.9749C144.333 66.1377 147.14 67.0427 145.574 55.335C145.574 55.335 147.713 53.602 150.31 54.0063Z" fill="#F24052"/>
<path d="M148.209 67.3124C148.114 63.7693 147.541 61.4393 147.541 61.4393L149.87 59.6869C149.355 57.4147 147.292 55.3351 147.292 55.3351C148.515 53.1976 150.31 54.0064 150.31 54.0064C152.429 57.1837 148.209 67.3124 148.209 67.3124Z" fill="#CE364C"/>
<path d="M158.845 51.5993C158.845 51.5993 160.125 50.5788 162.454 52.9473C162.454 52.9473 160.354 54.8536 160.64 56.8755C160.64 56.8755 162.416 56.991 163.505 57.9539C163.505 57.9539 162.588 61.1119 162.244 62.7101C162.244 62.7101 160.659 58.4353 159.628 56.8755C158.597 55.335 158.845 51.5993 158.845 51.5993Z" fill="#CE364C"/>
<path d="M139.597 65.3098C139.597 65.3098 140.132 64.9247 140.857 68.4871C141.602 72.0494 139.368 76.0162 139.368 76.0162C135.778 75.6311 134.785 66.003 134.785 66.003C137.076 65.9067 138.432 60.9579 138.432 60.9579L139.597 65.3098Z" fill="#CE364C"/>
<path d="M12.3051 62.1131C2.22261 68.3136 0.981395 61.3044 2.60453 57.2991C4.22766 53.2938 9.00158 44.359 13.4509 41.5668C13.4509 41.5668 22.3876 55.9126 12.3051 62.1131Z" fill="#CFD8DC"/>
<path d="M39.5928 42.3178C39.5737 42.3178 49.5034 50.7712 50.6492 57.896C51.7949 65.0208 45.3406 67.0619 40.2229 58.2426C35.0862 49.4233 39.5737 42.3178 39.5737 42.3178H39.5928Z" fill="#CFD8DC"/>
<path d="M2.3754 133.091C3.13922 132.976 4.20858 132.918 5.25884 132.591C5.52618 132.514 5.78715 132.417 6.04176 132.302C6.14361 132.25 6.25182 132.193 6.36639 132.128C6.60827 132.013 6.83742 131.865 7.05383 131.686C7.89404 131.031 8.56239 130.049 8.81064 128.489L11.8087 129.779C11.8087 129.779 12.8016 132.533 12.9353 135.691C12.948 135.935 12.9544 136.172 12.9544 136.403H0.943221C0.943221 136.403 0.905028 136.114 0.905028 135.691C0.905028 134.786 1.09599 133.303 2.3754 133.091Z" fill="#CFD8DC"/>
<path d="M12.9353 135.691C12.948 135.935 12.9544 136.172 12.9544 136.403H0.943221C0.943221 136.403 0.905028 136.114 0.905028 135.691H12.9353Z" fill="#ADBEC4"/>
<path d="M7.05383 131.686L8.39052 132.051L8.02771 132.668L6.36638 132.128C6.60826 132.013 6.83741 131.865 7.05383 131.686Z" fill="#ADBEC4"/>
<path d="M6.0417 132.302L7.07287 133.072L6.38542 133.342L5.25878 132.591C5.52612 132.513 5.78709 132.417 6.0417 132.302Z" fill="#ADBEC4"/>
<path d="M23.1323 133.765C24.5645 133.014 24.3735 129.375 24.3735 129.375L26.054 127.122C26.054 127.122 31.3817 131.84 30.5987 135.691C30.5478 135.935 30.4714 136.172 30.3696 136.403H22.3685C22.3685 136.403 22.2539 136.114 22.2348 135.691C22.1775 135.075 22.2921 134.227 23.1323 133.765Z" fill="#CFD8DC"/>
<path d="M30.3696 136.403H22.3685C22.3685 136.403 22.254 136.114 22.2349 135.691H30.5988C30.5478 135.935 30.4715 136.172 30.3696 136.403Z" fill="#ADBEC4"/>
<path d="M28.4218 133.149V133.707C26.875 132.706 23.5142 133.476 23.5142 133.476C25.5765 131.762 28.4218 133.149 28.4218 133.149Z" fill="#ADBEC4"/>
<path d="M28.1736 132.051L28.4218 132.629C26.3213 131.628 24.1826 132.629 24.1826 132.629C25.6911 131.108 28.1736 132.051 28.1736 132.051Z" fill="#ADBEC4"/>
<path d="M35.6018 73.2816C35.6018 80.9648 34.838 88.7828 34.647 90.7661C34.4561 92.7495 32.4128 114.894 32.1264 123.463C31.9927 127.853 30.5987 133.168 30.5987 133.168C30.5987 133.168 26.4359 129.779 24.0871 132.302L23.5143 128.874L24.6027 126.178C24.6027 126.178 23.4379 123.944 24.3927 122.211C25.3474 120.478 25.653 83.4296 25.653 83.4296L23.8007 83.314L14.1383 126.178V128.624C14.1383 128.624 12.9734 131.724 12.9543 133.707L6.67187 131.685L7.62665 128.874L7.37841 124.849L9.13521 119.612C9.13521 119.612 15.6659 78.654 15.1694 74.0518L35.6018 73.2816Z" fill="#105E99"/>
<path d="M14.8447 40.989C14.8447 40.989 19.2558 38.659 25.7102 38.8131C32.1645 38.9671 36.4992 40.5269 37.645 41.6052C38.7907 42.6836 36.1173 79.1547 36.1173 79.1547C36.1173 79.1547 24.4117 79.9634 14.3483 77.6335C14.3483 77.6335 15.8759 65.2132 15.6086 56.702C15.3603 48.2101 14.8447 40.989 14.8447 40.989Z" fill="#FFB878"/>
<path d="M27.9827 36.3869C27.3143 37.4652 27.9827 39.1405 27.9827 39.1405C24.5264 41.6631 22.9987 39.179 22.9987 39.179C23.9344 38.1584 23.3233 35.6166 23.3233 35.6166L27.9827 36.3869Z" fill="#EF6E4B"/>
<path d="M30.0832 31.0336C30.0832 31.0336 31.3817 29.7434 31.5345 31.2647C31.7254 33.0362 30.1214 33.7487 29.8159 33.1903C29.5103 32.6126 30.0832 31.0336 30.0832 31.0336Z" fill="#FF8B66"/>
<path d="M21.2608 33.2673C20.9553 33.845 19.3513 33.1325 19.5422 31.3609C19.695 29.8204 20.9935 31.1298 20.9935 31.1298C20.9935 31.1298 21.5664 32.7088 21.2608 33.2673Z" fill="#FF8B66"/>
<path d="M20.898 29.859C20.898 26.932 22.2537 25.1412 25.4809 25.1412C28.7081 25.1412 30.1785 26.932 30.1785 29.859C30.1785 35.5588 28.5553 37.4459 25.6719 37.4459C22.6929 37.4459 20.898 35.9824 20.898 29.859Z" fill="#FF8B66"/>
<path d="M22.5976 31.4765C22.9605 31.5343 23.2087 31.8231 23.1514 32.1312C23.1132 32.42 22.7695 32.5933 22.4067 32.5356C22.0439 32.4778 21.7956 32.189 21.8529 31.9001C21.8911 31.592 22.2348 31.4187 22.5976 31.4765Z" fill="#DB614D"/>
<path d="M28.4027 31.4765C28.7655 31.4573 29.0711 31.6691 29.0902 31.9579C29.1093 32.266 28.8228 32.5163 28.46 32.5356C28.0972 32.5741 27.7917 32.343 27.7726 32.0542C27.7535 31.7654 28.0208 31.4958 28.4027 31.4765Z" fill="#DB614D"/>
<path d="M22.6932 28.8384C22.6359 28.7806 22.655 28.6843 22.7123 28.6458C23.2661 28.2029 24.0681 28.357 24.1063 28.357C24.1827 28.3762 24.2209 28.4532 24.2209 28.5303C24.2018 28.6073 24.1254 28.6458 24.049 28.6458C24.0299 28.6458 23.3424 28.511 22.8842 28.8576C22.8587 28.8833 22.8269 28.8961 22.7887 28.8961C22.7505 28.8961 22.7187 28.8769 22.6932 28.8384Z" fill="#0C476B"/>
<path d="M28.1737 28.8769C27.7345 28.5111 27.0279 28.6266 27.0279 28.6266C26.9516 28.6266 26.8752 28.5881 26.8752 28.4918C26.8561 28.4148 26.9134 28.3378 26.9897 28.3378C27.0088 28.3378 27.8109 28.203 28.3646 28.6651C28.4219 28.7036 28.441 28.7999 28.3837 28.8577C28.3583 28.8962 28.3264 28.9154 28.2883 28.9154C28.2501 28.9154 28.2119 28.9026 28.1737 28.8769Z" fill="#0C476B"/>
<path d="M23.4379 29.8782C23.6288 29.8782 23.8007 30.167 23.8007 30.5329C23.8007 30.8987 23.6288 31.1876 23.4379 31.1876C23.2469 31.1876 23.0751 30.8987 23.0751 30.5329C23.0751 30.167 23.2469 29.8782 23.4379 29.8782Z" fill="#1A4850"/>
<path d="M27.2759 29.8782C27.486 29.8782 27.6388 30.167 27.6388 30.5329C27.6388 30.8987 27.486 31.1876 27.2759 31.1876C27.085 31.1876 26.9131 30.8987 26.9131 30.5329C26.9131 30.167 27.085 29.8782 27.2759 29.8782Z" fill="#1A4850"/>
<path d="M30.0831 31.7461C30.0831 31.7461 33.463 24.4288 25.9584 24.4288C18.4347 24.4288 21.0127 31.9194 21.0127 31.9194C20.8981 27.7601 22.5021 26.0655 22.5021 26.0655C26.8941 26.3929 28.8992 26.5277 28.8992 26.5277C30.2932 27.9334 30.0831 31.7461 30.0831 31.7461Z" fill="#0C476B"/>
<path d="M24.7173 31.6498L24.8128 31.5343C25.3856 30.9181 25.3856 28.9539 25.3856 28.9347H25.6912C25.6912 29.031 25.6912 30.841 25.1374 31.6306L25.7103 32.2082L25.5002 32.42L24.7173 31.6498Z" fill="#DB614D"/>
<path d="M25.0801 35.2891C22.8841 35.1929 23.1323 33.1132 23.1323 33.1132C24.5645 33.4983 27.4097 33.3635 27.4097 33.3635C27.4097 33.3635 27.4097 35.4047 25.0801 35.2891Z" fill="#1A4850"/>
<path d="M21.9484 26.8935C21.9484 26.8935 20.688 25.7959 20.8981 24.4287C21.089 23.0423 24.0107 22.0024 26.5695 22.5223C26.5695 22.5223 27.9253 21.8099 29.7203 22.9652C31.5344 24.1399 32.7374 27.606 31.1525 29.7434C31.1525 29.7434 31.5153 26.104 29.453 27.3364C29.453 27.3364 26.1876 25.5648 21.9484 26.8935Z" fill="#0D527C"/>
<path d="M39.5927 42.3177C42.0561 46.7659 41.1013 67.524 40.1465 67.8513C39.1917 68.1979 29.262 68.5253 29.262 68.5253C26.283 58.9165 29.262 39.0442 29.262 39.0442C35.5062 38.9286 39.5736 42.3177 39.5736 42.3177H39.5927Z" fill="#F24052"/>
<path d="M49.7708 62.9218C48.8733 64.4431 45.8944 66.1954 43.2783 66.7538C42.1134 67.0041 41.025 67.0234 40.2229 66.696C40.2229 66.696 39.7837 62.4212 37.3395 60.0527C37.3395 60.0527 37.4541 59.7446 37.7596 59.3017C38.4661 58.3774 40.2229 56.9524 44.2712 57.3761C50.1909 57.9923 51.0884 60.7074 49.7708 62.9218Z" fill="#CFD8DC"/>
<path d="M32.5084 39.2946C32.5084 39.2946 30.8662 41.7208 28.7848 42.8184C28.7848 42.8184 28.7275 42.4911 28.7084 41.9712C28.6957 41.83 28.6893 41.6823 28.6893 41.5283C28.6893 41.2587 28.7084 40.9699 28.7275 40.6618C28.7529 40.4949 28.7784 40.3216 28.8039 40.1418C29.0139 39.0057 29.5677 37.8118 30.8471 37.2534C30.8471 37.2534 31.1908 37.3304 31.5727 37.6578C31.6619 37.7348 31.751 37.8247 31.8401 37.9274C31.9547 38.0622 32.0883 38.2355 32.1838 38.4473C32.2602 38.5628 32.3175 38.6912 32.3557 38.8324C32.4193 38.9736 32.4702 39.1277 32.5084 39.2946Z" fill="#B72E48"/>
<path d="M32.3557 38.8324C31.6109 39.6989 30.3888 40.9121 28.6893 41.9712C28.6893 41.8299 28.6893 41.6823 28.6893 41.5283C30.3315 40.4692 31.4964 39.2753 32.1838 38.4473C32.2602 38.5628 32.3175 38.6912 32.3557 38.8324Z" fill="#CFD8DC"/>
<path d="M31.8399 37.9274C31.1525 38.6976 30.1213 39.7182 28.7273 40.6617C28.7528 40.4948 28.7783 40.3215 28.8037 40.1418C30.0258 39.2753 30.9424 38.351 31.5726 37.6578C31.6617 37.7348 31.7508 37.8247 31.8399 37.9274Z" fill="#CFD8DC"/>
<path d="M40.2229 69.2186C40.2229 69.347 40.2165 69.4754 40.2038 69.6037C40.1847 69.9311 40.1465 70.2007 40.051 70.2392C39.7646 70.3547 29.7203 71.0094 29.7203 71.0094L29.6057 70.3547L29.5293 69.9696L29.4148 69.3727L29.3384 68.9875L29.262 68.5254C32.8711 67.8707 40.1465 67.8514 40.1465 67.8514C40.1465 67.8514 40.1656 68.0055 40.1847 68.2173C40.1847 68.3328 40.1911 68.4612 40.2038 68.6024C40.2038 68.795 40.2229 69.0068 40.2229 69.2186Z" fill="#B72E48"/>
<path d="M40.2038 68.6025C36.1555 68.564 31.668 69.0647 29.4147 69.3728L29.3384 68.9876C31.6108 68.6795 36.1173 68.1789 40.1847 68.2174C40.1847 68.3329 40.1911 68.4613 40.2038 68.6025Z" fill="#CFD8DC"/>
<path d="M40.2228 69.2187C40.2228 69.3471 40.2164 69.4754 40.2037 69.6038C36.27 69.546 31.8971 70.0274 29.6056 70.3548L29.5292 69.9697C31.8398 69.6616 36.2509 69.1802 40.2228 69.2187Z" fill="#CFD8DC"/>
<path fill-rule="evenodd" clip-rule="evenodd" d="M37.3394 51.9843L35.7927 52.2924L34.8761 50.5208L33.4439 50.5786L32.7947 52.6582H31.5535L33.1766 46.6888L34.7424 46.4963L37.3394 51.9843ZM34.7233 49.558L33.9404 47.902L33.6158 49.558H34.7233Z" fill="#CFD8DC"/>
<path d="M22.1203 39.0442C22.1203 39.0442 23.6097 58.9743 20.7072 68.6024C20.7072 68.6024 12.5342 68.275 11.7513 67.9284C10.9875 67.6011 11.1975 46.0342 13.4508 41.5668C13.4508 41.5668 16.9644 38.9287 22.1203 39.0442Z" fill="#F24052"/>
<path d="M18.7786 38.8324C18.8295 38.6912 18.8868 38.5628 18.9504 38.4473C19.0459 38.2355 19.1796 38.0622 19.2942 37.9274C19.3833 37.8247 19.4788 37.7348 19.5806 37.6578C19.9625 37.3304 20.3062 37.2534 20.3062 37.2534C21.5856 37.8118 22.1203 39.0057 22.3304 40.1418C22.3686 40.3216 22.394 40.4949 22.4068 40.6618C22.445 40.9699 22.4449 41.2587 22.4449 41.5283C22.4449 41.6823 22.4449 41.83 22.4449 41.9712C22.4259 42.4911 22.3495 42.8184 22.3495 42.8184C20.268 41.7208 18.6258 39.2946 18.6258 39.2946C18.664 39.1277 18.7149 38.9736 18.7786 38.8324Z" fill="#B72E48"/>
<path d="M18.9504 38.4473C19.6379 39.2753 20.8027 40.4692 22.4449 41.5283C22.4449 41.6823 22.4449 41.8299 22.4449 41.9712C20.7454 40.9121 19.5233 39.6989 18.7786 38.8324C18.8295 38.6912 18.8868 38.5628 18.9504 38.4473Z" fill="#CFD8DC"/>
<path d="M19.5806 37.6578C20.1916 38.351 21.1082 39.2753 22.3304 40.1418C22.3685 40.3215 22.394 40.4948 22.4067 40.6617C21.0128 39.7182 19.9816 38.6976 19.2941 37.9274C19.3833 37.8247 19.4787 37.7348 19.5806 37.6578Z" fill="#CFD8DC"/>
<path d="M11.6941 68.6793C11.7068 68.5381 11.7132 68.4098 11.7132 68.2942C11.7514 68.0824 11.7514 67.9284 11.7514 67.9284C11.7514 67.9284 17.7665 67.9476 20.7072 68.6023L20.6117 69.0837L20.5354 69.4496L20.4017 70.0465L20.3444 70.4317L20.1916 71.1056C20.1916 71.1056 11.9614 70.4316 11.7323 70.3161C11.6559 70.2969 11.6368 70.008 11.6368 69.6807C11.6368 69.5523 11.6368 69.4239 11.6368 69.2955C11.6559 69.0837 11.675 68.8719 11.6941 68.6793Z" fill="#B72E48"/>
<path d="M11.7132 68.2942C15.074 68.2557 18.7595 68.7564 20.6117 69.0837L20.5354 69.4496C18.6831 69.1415 15.0167 68.6408 11.6941 68.6793C11.7068 68.5381 11.7132 68.4098 11.7132 68.2942Z" fill="#CFD8DC"/>
<path d="M20.4017 70.0465L20.3444 70.4316C18.4539 70.1235 14.883 69.6421 11.6368 69.6806C11.6368 69.5523 11.6368 69.4239 11.6368 69.2955C14.9212 69.257 18.5112 69.7384 20.4017 70.0465Z" fill="#CFD8DC"/>
<path d="M6.38543 44.1085C8.81058 44.744 10.2619 57.1449 8.86787 60.0526C7.47388 62.9603 5.44974 64.8666 2.01252 62.113C-1.44379 59.3786 0.141148 45.1869 2.37534 44.2241C3.4256 43.7812 6.38543 44.1085 6.38543 44.1085Z" fill="#CFD8DC"/>
<path d="M6.42362 43.4539C6.42362 43.7106 6.41089 43.9417 6.38543 44.1471C6.35997 44.3396 6.32178 44.5065 6.27086 44.6477C5.94623 45.4757 5.14421 45.5143 4.03666 45.572C3.08188 45.6298 2.5663 45.3602 2.41353 44.7248C2.36261 44.545 2.34351 44.3332 2.35624 44.0893C2.35624 43.9224 2.36897 43.7491 2.39444 43.5694C2.4199 43.4282 2.44536 43.2805 2.47082 43.1265C2.53447 42.8441 2.61085 42.536 2.69997 42.2022C2.89092 41.5475 4.81959 41.4127 4.81959 41.4127C5.41155 41.3549 6.23267 41.4897 6.30905 42.1444C6.35997 42.4654 6.3918 42.7606 6.40453 43.0302C6.41726 43.1843 6.42362 43.3255 6.42362 43.4539Z" fill="#B72E48"/>
<path d="M1.21053 35.6744C1.61154 35.6166 1.51606 36.1558 2.39446 37.1764C2.29899 36.7528 2.20351 36.3099 2.08893 36.098C1.82159 35.6166 1.63064 34.3457 2.12712 34.3842C2.62361 34.4035 2.33718 35.039 3.19648 36.5409L3.42563 36.4061C3.40654 36.1558 3.38744 35.7129 3.34925 35.3085C3.31106 34.6731 3.1201 33.8066 3.25377 33.537C3.36834 33.2674 3.94121 32.94 3.9985 33.8066C4.09398 35.0775 4.4568 36.4061 4.49499 36.2713L4.70504 36.2521C5.12514 34.2687 4.62866 33.7681 5.16334 33.5562C5.71711 33.3444 5.73621 34.5768 5.71711 35.4818C5.69802 36.1366 5.79349 37.5808 6.2136 38.0622C6.22633 38.075 6.23906 38.0878 6.25179 38.1007C6.36636 38.2162 6.55732 38.2547 6.74828 38.2162C6.76101 38.2162 6.76737 38.2162 6.76737 38.2162C6.81829 38.2162 6.86922 38.2034 6.92014 38.1777C7.16838 38.1007 7.45482 37.2534 7.93221 36.9261C8.3905 36.5794 8.63875 37.1379 8.63875 37.1379C8.63875 37.1379 7.76035 38.3125 7.45482 39.3716C7.16838 40.4114 6.30908 40.7003 6.04174 41.2202C5.90807 41.4705 6.04174 42.3948 6.04174 42.3948C4.74323 43.3769 3.19648 42.5874 3.19648 42.5874C3.19648 42.5874 3.40654 41.6631 3.02462 41.1239C2.62361 40.604 2.48994 39.9685 2.27989 38.8324C2.27989 38.8324 1.7834 37.4652 1.47787 37.1186C1.17234 36.772 0.790429 35.7514 1.21053 35.6744Z" fill="#FF8B66"/>
<path d="M6.25182 38.1006C6.36639 38.2161 6.55735 38.2546 6.7483 38.2161C6.61463 38.2739 5.56437 38.6397 5.25884 39.4677C5.25884 39.4677 5.20155 38.5627 6.25182 38.1006Z" fill="#EF6E4B"/>
<path d="M6.42362 43.4538C5.67889 43.8389 4.304 43.8967 3.50198 43.8967C3.41287 43.8967 3.33012 43.8967 3.25374 43.8967C2.89092 43.8967 2.60449 43.7619 2.39443 43.5694C2.41989 43.4281 2.44536 43.2805 2.47082 43.1265C2.64268 43.319 2.89092 43.5116 3.27283 43.5116C4.43767 43.5308 5.88894 43.4153 6.40452 43.0302C6.41725 43.1842 6.42362 43.3254 6.42362 43.4538Z" fill="#CFD8DC"/>
<path d="M6.38543 44.1471C6.35997 44.3397 6.32178 44.5066 6.27086 44.6478C5.48793 44.9751 4.24671 45.0136 3.48289 45.0136C3.39377 45.0136 3.31739 45.0136 3.25374 45.0136C2.89092 45.0136 2.62358 44.8981 2.41353 44.7248C2.36261 44.5451 2.34351 44.3333 2.35624 44.0893C2.50901 44.3397 2.77635 44.6285 3.25374 44.6285C4.41858 44.6478 5.86985 44.5322 6.38543 44.1471Z" fill="#CFD8DC"/>
<path d="M16.1625 59.0513C16.1625 59.0513 17.06 59.9371 16.9263 60.4185C16.7926 60.8807 13.6418 64.6356 13.2599 65.791L12.2097 65.2133C12.2097 65.2133 13.8328 60.1874 16.1625 59.0513Z" fill="#CFD8DC"/>
<path d="M43.2783 66.7538C42.1134 67.0042 41.025 67.0234 40.2229 66.696C40.2229 66.696 39.7837 62.4212 37.3395 60.0527C37.3395 60.0527 37.4541 59.7446 37.7596 59.3017C39.1536 60.3415 44.0612 64.1928 43.2783 66.7538Z" fill="#B5C4C9"/>
<path d="M36.633 59.0513C36.6139 59.0513 40.5285 62.6907 40.2039 66.9463C40.2039 66.9463 38.5044 67.5818 38.428 66.9463C38.3325 66.3109 37.4159 62.6137 35.6018 60.4185C35.3154 60.0719 36.6139 59.0513 36.6139 59.0513H36.633Z" fill="#CFD8DC"/>
<path d="M134.097 31.1877C133.83 33.4022 132.665 36.1558 131.214 38.8517C130.851 39.5449 130.45 40.2188 130.068 40.8928C129.552 41.7401 129.037 42.5488 128.54 43.3383C128.063 44.0701 127.586 44.7633 127.146 45.418C125.428 47.9213 124.072 49.6351 124.072 49.6351L119.986 37.2534L123.003 33.0363L123.881 31.7847L124.759 30.5523L125.657 29.3006L126.593 27.9719C126.841 21.5019 125.905 11.4887 128.311 10.8725C128.311 10.8725 131.271 10.5259 132.321 10.988C134.556 11.9508 135.071 22.5032 134.097 31.1877Z" fill="#0D527C"/>
<path d="M128.292 9.77497C128.305 9.51823 128.337 9.22938 128.388 8.90845C128.464 8.23448 129.285 8.11895 129.877 8.15746C129.877 8.15746 131.806 8.29225 131.997 8.94696C132.086 9.28073 132.162 9.58883 132.226 9.87126C132.264 10.0381 132.29 10.1922 132.302 10.3334C132.328 10.5131 132.347 10.68 132.36 10.8341C132.372 11.078 132.347 11.2898 132.283 11.4695C132.13 12.105 131.615 12.3746 130.66 12.336C129.553 12.259 128.75 12.2398 128.445 11.3925C128.381 11.2513 128.337 11.0844 128.311 10.8918C128.286 10.6993 128.273 10.4746 128.273 10.2179C128.273 10.0767 128.279 9.92902 128.292 9.77497Z" fill="#105E99"/>
<path d="M133.219 3.86329C132.913 4.2099 132.417 5.57709 132.417 5.57709C132.207 6.73246 132.073 7.36791 131.691 7.88783C131.29 8.40774 131.5 9.35129 131.5 9.35129C131.5 9.35129 129.954 10.1408 128.655 9.15873C128.655 9.15873 128.789 8.23444 128.655 7.96485C128.388 7.44494 127.528 7.17535 127.242 6.11626C126.955 5.05717 126.077 3.88255 126.077 3.88255C126.077 3.88255 126.325 3.34338 126.784 3.67073C127.242 4.01734 127.528 4.86461 127.777 4.94164C127.828 4.95448 127.878 4.96731 127.929 4.98015C127.929 4.98015 127.936 4.98015 127.948 4.98015C128.139 4.99941 128.33 4.96089 128.445 4.84536C128.458 4.84536 128.47 4.83894 128.483 4.8261C128.903 4.32544 128.999 2.88123 128.98 2.24578C128.961 1.34074 128.999 0.108349 129.533 0.320166C130.068 0.512727 129.572 1.01339 129.992 2.99677L130.202 3.03528C130.24 3.17007 130.622 1.82214 130.698 0.570494C130.775 -0.296033 131.328 0.0120656 131.462 0.281651C131.577 0.570494 131.386 1.41777 131.348 2.05322C131.328 2.47685 131.29 2.90049 131.271 3.15082L131.5 3.28561C132.36 1.78363 132.073 1.16744 132.57 1.12892C133.066 1.10967 132.894 2.38057 132.627 2.86198C132.512 3.07379 132.398 3.49743 132.302 3.92106C133.181 2.90049 133.085 2.38057 133.486 2.43834C133.906 2.49611 133.524 3.51668 133.219 3.86329Z" fill="#FF8B66"/>
<path d="M129.438 6.23181C129.132 5.40379 128.082 5.01867 127.948 4.98016C128.139 4.99941 128.33 4.9609 128.445 4.84537C129.495 5.32677 129.438 6.23181 129.438 6.23181Z" fill="#EF6E4B"/>
<path d="M128.54 43.3384C128.063 44.0702 127.586 44.7634 127.146 45.4181C126.803 37.0224 124.072 33.9222 123.003 33.0364L123.881 31.7848C125.122 32.7861 127.834 35.8285 128.54 43.3384Z" fill="#CFD8DC"/>
<path d="M131.214 38.8517C130.851 39.5449 130.45 40.2189 130.068 40.8929C128.884 33.6526 125.466 31.0145 124.76 30.5523L125.657 29.3007C126.631 29.9554 129.743 32.4972 131.214 38.8517Z" fill="#CFD8DC"/>
<path d="M100.412 81.5618C99.0948 81.1382 93.328 72.5307 92.6978 67.5434C92.3732 65.0016 93.7481 59.7639 95.6767 54.4877C95.8931 53.8844 96.1223 53.2874 96.3642 52.6969C96.6951 51.8368 97.0325 50.9959 97.3762 50.1743C97.6308 49.571 97.8918 48.974 98.1592 48.3835C99.4004 45.6491 100.661 43.2421 101.768 41.6054L103.315 56.24L103.582 58.7433L103.811 60.9578L103.792 61.0155L102.971 62.325L100.412 66.5035C100.412 66.5035 103.086 76.2086 103.811 77.1329C104.556 78.038 101.73 81.9662 100.412 81.5618Z" fill="#0D527C"/>
<path d="M103.582 58.7433C100.985 56.2785 98.6367 52.4081 97.3764 50.1743C97.631 49.571 97.8919 48.974 98.1593 48.3835C98.9422 49.8662 100.966 53.5057 103.315 56.24L103.582 58.7433Z" fill="#CFD8DC"/>
<path d="M103.792 61.0154L102.971 62.3249C99.8015 60.2067 97.2045 56.7983 95.6768 54.4876C95.8932 53.8843 96.1224 53.2873 96.3642 52.6968C97.6818 54.7957 100.432 58.7625 103.792 61.0154Z" fill="#CFD8DC"/>
<path d="M104.499 80.4643L103.812 83.0831L100.966 80.4643C100.775 78.7505 102.57 77.961 102.57 77.961L104.499 80.4643Z" fill="#FF8B66"/>
<path d="M138.508 135.691C138.508 136.114 138.451 136.403 138.451 136.403H126.44C126.44 136.172 126.446 135.935 126.459 135.691C126.593 132.533 127.586 129.779 127.586 129.779L130.603 128.489C130.851 130.049 131.519 131.031 132.36 131.686C132.576 131.865 132.805 132.013 133.047 132.128C133.149 132.193 133.257 132.25 133.372 132.302C133.626 132.417 133.881 132.514 134.136 132.591C135.205 132.918 136.274 132.976 137.019 133.091C138.298 133.303 138.508 134.786 138.508 135.691Z" fill="#F24052"/>
<path d="M138.508 135.691C138.508 136.114 138.451 136.403 138.451 136.403H126.44C126.44 136.172 126.446 135.935 126.459 135.691H138.508Z" fill="#ADBEC4"/>
<path d="M133.047 132.128L131.367 132.668L131.023 132.051L132.36 131.686C132.576 131.865 132.805 132.013 133.047 132.128Z" fill="#ADBEC4"/>
<path d="M134.136 132.591L133.028 133.342L132.321 133.072L133.372 132.302C133.626 132.417 133.881 132.514 134.136 132.591Z" fill="#ADBEC4"/>
<path d="M117.179 135.691C117.14 136.114 117.045 136.403 117.045 136.403H109.044C108.942 136.172 108.866 135.935 108.815 135.691C108.032 131.84 113.34 127.122 113.34 127.122L115.04 129.375C115.04 129.375 114.83 133.014 116.262 133.765C117.121 134.227 117.236 135.075 117.179 135.691Z" fill="#F24052"/>
<path d="M108.815 135.691H117.179C117.14 136.114 117.045 136.403 117.045 136.403H109.044C108.942 136.172 108.866 135.935 108.815 135.691Z" fill="#ADBEC4"/>
<path d="M115.899 133.476C115.899 133.476 112.538 132.706 110.992 133.707V133.149C110.992 133.149 113.837 131.763 115.899 133.476Z" fill="#ADBEC4"/>
<path d="M115.231 132.629C115.231 132.629 113.073 131.628 110.992 132.629L111.24 132.051C111.24 132.051 113.722 131.108 115.231 132.629Z" fill="#ADBEC4"/>
<path d="M124.244 74.0519C123.747 78.6542 130.259 119.612 130.259 119.612L132.035 124.85L131.768 128.874L132.741 131.686L126.44 133.707C126.421 131.724 125.256 128.624 125.256 128.624V126.178L115.613 83.3141L113.76 83.4297C113.76 83.4297 114.047 120.478 115.021 122.212C115.975 123.945 114.792 126.178 114.792 126.178L115.899 128.874L115.307 132.302C112.958 129.779 108.815 133.168 108.815 133.168C108.815 133.168 107.421 127.854 107.268 123.463C106.981 114.894 104.957 92.7497 104.766 90.7663C104.556 88.7829 103.812 80.9649 103.812 73.2817L124.244 74.0519Z" fill="#8B383E"/>
<path d="M105.263 87.2617L102.57 83.0831C102.666 81.0035 104.499 77.961 104.499 77.961L105.263 87.2617Z" fill="#8B383E"/>
<path d="M123.786 56.7021C123.537 65.2133 125.065 82.0624 125.065 82.0624C115.002 84.3924 109.025 78.2883 103.602 78.6541C103.602 78.6541 100.623 42.6836 101.768 41.6053C102.914 40.527 108.07 38.9287 114.524 38.6013C121.571 38.2355 122.544 35.6166 122.544 35.6166C122.544 35.6166 124.053 48.2102 123.786 56.7021Z" fill="#F24052"/>
<path d="M115.708 35.6166C115.708 35.6166 115.116 37.5808 116.052 38.6013C116.052 38.6013 114.505 41.6631 111.049 39.1405C111.049 39.1405 111.698 37.4652 111.049 36.3869L115.708 35.6166Z" fill="#EF6E4B"/>
<path d="M109.216 32.8052C108.891 33.3637 107.306 32.6512 107.497 30.8796C107.65 29.3584 108.948 30.6486 108.948 30.6486C108.948 30.6486 109.521 32.2276 109.216 32.8052Z" fill="#FF8B66"/>
<path d="M118.038 30.7449C118.038 30.7449 119.336 29.4355 119.489 30.976C119.68 32.7476 118.076 33.4408 117.771 32.8824C117.465 32.3239 118.038 30.7449 118.038 30.7449Z" fill="#FF8B66"/>
<path d="M113.359 37.0609C110.476 37.0609 108.853 35.1738 108.853 29.474C108.853 26.547 110.323 24.7562 113.55 24.7562C116.778 24.7562 118.133 26.547 118.133 29.474C118.133 35.5974 116.319 37.0609 113.359 37.0609Z" fill="#FF8B66"/>
<path d="M117.178 31.5151C117.236 31.8039 116.988 32.0928 116.625 32.1505C116.262 32.2083 115.918 32.035 115.861 31.7462C115.823 31.4381 116.071 31.1492 116.434 31.0914C116.797 31.0337 117.121 31.207 117.178 31.5151Z" fill="#DB614D"/>
<path d="M111.259 31.6691C111.24 31.958 110.934 32.1891 110.571 32.1506C110.19 32.1313 109.922 31.881 109.941 31.5729C109.96 31.284 110.266 31.0722 110.629 31.0915C110.992 31.1107 111.278 31.361 111.259 31.6691Z" fill="#DB614D"/>
<path d="M116.243 28.5112C116.205 28.5112 116.173 28.4983 116.147 28.4727C115.689 28.1261 115.001 28.2608 114.982 28.2608C114.906 28.2608 114.83 28.2223 114.811 28.1453C114.791 28.0683 114.849 27.9913 114.925 27.972C114.963 27.9528 115.746 27.818 116.319 28.2608C116.376 28.2994 116.395 28.3956 116.338 28.4534C116.313 28.4919 116.281 28.5112 116.243 28.5112Z" fill="#CE364C"/>
<path d="M110.743 28.5304C110.705 28.5304 110.673 28.5111 110.648 28.4726C110.591 28.4149 110.61 28.3186 110.667 28.2801C111.202 27.8179 112.004 27.9527 112.042 27.9527C112.118 27.9527 112.175 28.0297 112.156 28.1068C112.156 28.1838 112.08 28.2416 112.004 28.2416C111.985 28.2416 111.297 28.126 110.839 28.4919C110.813 28.5176 110.781 28.5304 110.743 28.5304Z" fill="#CE364C"/>
<path d="M115.956 30.1479C115.956 30.5138 115.785 30.8026 115.594 30.8026C115.384 30.8026 115.231 30.5138 115.231 30.1479C115.231 29.7821 115.384 29.4932 115.594 29.4932C115.785 29.4932 115.956 29.7821 115.956 30.1479Z" fill="#1A4850"/>
<path d="M112.099 30.1479C112.099 30.5138 111.946 30.8026 111.755 30.8026C111.545 30.8026 111.393 30.5138 111.393 30.1479C111.393 29.7821 111.545 29.4932 111.755 29.4932C111.946 29.4932 112.099 29.7821 112.099 30.1479Z" fill="#1A4850"/>
<path d="M110.514 25.7576C110.514 25.7576 112.118 26.0079 116.529 25.6805C116.529 25.6805 116.854 27.1825 117.599 27.8565C117.599 27.8565 118.057 29.9747 118.019 31.5344C118.019 31.5344 120.826 23.0425 113.073 23.2735C105.205 23.4853 108.948 31.3611 108.948 31.3611C108.948 31.3611 108.986 30.1672 109.254 28.8193C109.254 28.8193 110.285 27.4714 110.514 25.7576Z" fill="#CE364C"/>
<path d="M113.531 32.035L113.321 31.8232L113.894 31.2455C113.34 30.456 113.34 28.6459 113.34 28.5497H113.646C113.646 28.5689 113.646 30.533 114.2 31.1492L114.295 31.2648L113.531 32.035Z" fill="#DB614D"/>
<path d="M111.622 32.9787C111.622 32.9787 114.448 33.1135 115.88 32.7283C115.88 32.7283 116.147 34.808 113.951 34.9043C111.622 35.0198 111.622 32.9787 111.622 32.9787Z" fill="#1A4850"/>
<path d="M125.523 45.861C126.134 51.8304 125.313 68.4869 125.504 69.8156C125.695 71.1635 125.122 74.2638 115.613 74.9377C106.103 75.5924 102.017 72.9158 100.966 70.374C99.916 67.8515 100.393 42.2023 102.207 40.9891C104.022 39.7568 109.674 38.7939 109.674 38.7939C109.674 38.7939 110.514 41.201 114.142 40.9506C118.057 40.6811 117.427 37.6964 117.427 37.6964C117.427 37.6964 120.348 36.8106 122.43 33.8066C122.43 33.8066 124.549 36.3677 125.523 45.861Z" fill="#105E99"/>
<path d="M124.607 72.2419L124.989 73.455C116.949 76.7863 102.57 75.1303 102.57 75.1303V72.4344C110.037 73.8401 124.607 72.2419 124.607 72.2419Z" fill="#0D527C"/>
<path d="M109.674 38.7939C109.674 38.7939 110.342 38.3318 110.571 38.4088C110.571 38.4088 111.851 40.9699 114.2 40.5655C116.548 40.1611 116.758 37.9467 116.758 37.9467C116.758 37.9467 117.083 37.3497 117.427 37.6963C117.771 38.0622 117.885 41.3357 114.2 41.5283C110.514 41.7209 109.617 39.4679 109.674 38.7939Z" fill="#0D527C"/>
<path d="M121.494 44.1471L118.897 44.8981L119.069 45.8416C121.227 45.1484 122.544 46.2267 121.781 48.3834C121.017 50.5401 118.515 49.9624 118.515 49.9624V49.0766C120.807 50.0202 121.361 47.6132 120.94 46.9392C120.215 45.8416 118.515 46.9007 118.515 46.9007L117.962 44.2048L121.418 43.3383L121.494 44.1471Z" fill="#CFD8DC"/>
</svg>
