<svg width="28" height="32" viewBox="0 0 28 32" fill="none" xmlns="http://www.w3.org/2000/svg">
<path d="M28 24C26.2487 24 26.0462 22 23.3437 22C20.6294 22 20.4172 24 18.6719 24C16.9409 24 16.706 22 14 22C11.3224 22 11.0489 24 9.34375 24C7.5845 24 7.39362 22 4.67187 22C1.95019 22 1.75606 24 0 24V19C0 17.3437 1.34375 16 3 16H4V7H8V16H12V7H16V16H20V7H24V16H25C26.6562 16 28 17.3437 28 19V24ZM28 32H0V26C2.70975 26 2.92294 24 4.67187 24C6.41881 24 6.62519 26 9.34375 26C12.0214 26 12.2948 24 14 24C15.7592 24 15.9501 26 18.6719 26C21.3817 26 21.5948 24 23.3437 24C25.0617 24 25.297 26 28 26V32ZM6 6C4.89062 6 4 5.10937 4 4C4 2.0625 6 2.5625 6 0C6.75 0 8 1.84375 8 3.5C8 5.15625 7.10937 6 6 6ZM14 6C12.8906 6 12 5.10937 12 4C12 2.0625 14 2.5625 14 0C14.75 0 16 1.84375 16 3.5C16 5.15625 15.1094 6 14 6ZM22 6C20.8906 6 20 5.10937 20 4C20 2.0625 22 2.5625 22 0C22.75 0 24 1.84375 24 3.5C24 5.15625 23.1094 6 22 6Z" fill="white"/>
</svg>
