<svg width="35" height="31" viewBox="0 0 35 31" fill="none" xmlns="http://www.w3.org/2000/svg">
<path d="M26.7683 14.9914V24.3298H29.4364V14.9914H26.7683ZM22.7662 28.3319H12.0938V31H22.7662V28.3319ZM8.09168 24.3298V14.9914H5.42359V24.3298H8.09168ZM12.0938 28.3319C10.7985 28.3319 9.96069 28.3292 9.34436 28.2465C8.76538 28.1678 8.58395 28.0424 8.48256 27.941L6.59622 29.8274C7.27658 30.5077 8.11436 30.7732 8.98816 30.8906C9.82595 31.0027 10.8732 31 12.0938 31V28.3319ZM5.42359 24.3298C5.42359 25.5504 5.42092 26.599 5.53298 27.4354C5.65038 28.3092 5.91585 29.1483 6.59622 29.8274L8.48256 27.941C8.38117 27.8396 8.25577 27.6582 8.17706 27.0792C8.09435 26.4642 8.09168 25.6251 8.09168 24.3298H5.42359ZM26.7683 24.3298C26.7683 25.6251 26.7657 26.4629 26.683 27.0792C26.6043 27.6582 26.4789 27.8396 26.3775 27.941L28.2638 29.8274C28.9442 29.147 29.2097 28.3092 29.3271 27.4354C29.4391 26.5976 29.4364 25.5504 29.4364 24.3298H26.7683ZM22.7662 31C23.9869 31 25.0354 31.0027 25.8719 30.8906C26.7457 30.7732 27.5848 30.5077 28.2638 29.8274L26.3775 27.941C26.2761 28.0424 26.0947 28.1678 25.5157 28.2465C24.8994 28.3292 24.0616 28.3319 22.7662 28.3319V31Z" fill="#050105"/>
<path d="M5.42358 16.3254L13.6573 8.09168C15.4356 6.31339 16.3254 5.42358 17.43 5.42358C18.5346 5.42358 19.4244 6.31339 21.2027 8.09168L29.4364 16.3254" fill="#050105"/>
<path d="M5.42358 16.3254L13.6573 8.09168C15.4356 6.31339 16.3254 5.42358 17.43 5.42358C18.5346 5.42358 19.4244 6.31339 21.2027 8.09168L29.4364 16.3254" stroke="black" stroke-width="10.5892" stroke-linecap="round"/>
<path d="M13.4278 24.3297C13.4278 23.0864 13.4278 22.4647 13.6306 21.9751C13.7647 21.6512 13.9613 21.3569 14.2092 21.109C14.4571 20.8611 14.7514 20.6645 15.0754 20.5304C15.565 20.3276 16.1866 20.3276 17.43 20.3276C18.6733 20.3276 19.295 20.3276 19.7846 20.5304C20.1085 20.6645 20.4028 20.8611 20.6507 21.109C20.8986 21.3569 21.0952 21.6512 21.2293 21.9751C21.4321 22.4647 21.4321 23.0864 21.4321 24.3297V29.6659H13.4278V24.3297ZM22.7662 7.65414C22.7662 7.03248 22.7662 6.72164 22.8675 6.47618C23.0032 6.14995 23.2628 5.89087 23.5893 5.75579C23.8347 5.65307 24.1456 5.65307 24.7672 5.65307C25.3889 5.65307 25.6997 5.65307 25.9452 5.75446C26.2714 5.89014 26.5305 6.1497 26.6656 6.47618C26.7683 6.72164 26.7683 7.03248 26.7683 7.65414V14.9914L22.7662 10.3222V7.65414Z" fill="#050105"/>
</svg>
