<svg width="35" height="31" viewBox="0 0 35 31" fill="none" xmlns="http://www.w3.org/2000/svg">
<path d="M26.7682 14.9914V24.3298H29.4363V14.9914H26.7682ZM22.7661 28.3319H12.0937V31H22.7661V28.3319ZM8.09156 24.3298V14.9914H5.42347V24.3298H8.09156ZM12.0937 28.3319C10.7983 28.3319 9.96056 28.3292 9.34423 28.2465C8.76525 28.1678 8.58382 28.0424 8.48244 27.941L6.59609 29.8274C7.27646 30.5077 8.11424 30.7732 8.98804 30.8906C9.82582 31.0027 10.873 31 12.0937 31V28.3319ZM5.42347 24.3298C5.42347 25.5504 5.4208 26.599 5.53286 27.4354C5.65025 28.3092 5.91573 29.1483 6.59609 29.8274L8.48244 27.941C8.38105 27.8396 8.25565 27.6582 8.17694 27.0792C8.09423 26.4642 8.09156 25.6251 8.09156 24.3298H5.42347ZM26.7682 24.3298C26.7682 25.6251 26.7656 26.4629 26.6828 27.0792C26.6041 27.6582 26.4787 27.8396 26.3773 27.941L28.2637 29.8274C28.9441 29.147 29.2095 28.3092 29.3269 27.4354C29.439 26.5976 29.4363 25.5504 29.4363 24.3298H26.7682ZM22.7661 31C23.9867 31 25.0353 31.0027 25.8717 30.8906C26.7455 30.7732 27.5847 30.5077 28.2637 29.8274L26.3773 27.941C26.276 28.0424 26.0945 28.1678 25.5156 28.2465C24.8992 28.3292 24.0614 28.3319 22.7661 28.3319V31Z" fill="white"/>
<path d="M5.42358 16.3254L13.6573 8.09168C15.4356 6.31339 16.3254 5.42358 17.43 5.42358C18.5346 5.42358 19.4244 6.31339 21.2027 8.09168L29.4364 16.3254" stroke="white" stroke-width="10.5892" stroke-linecap="round"/>
<path d="M13.4278 24.3296C13.4278 23.0863 13.4278 22.4646 13.6306 21.975C13.7647 21.6511 13.9613 21.3568 14.2092 21.1089C14.4571 20.8609 14.7514 20.6643 15.0754 20.5302C15.565 20.3275 16.1866 20.3275 17.43 20.3275C18.6733 20.3275 19.295 20.3275 19.7846 20.5302C20.1085 20.6643 20.4028 20.8609 20.6507 21.1089C20.8986 21.3568 21.0952 21.6511 21.2293 21.975C21.4321 22.4646 21.4321 23.0863 21.4321 24.3296V29.6658H13.4278V24.3296ZM22.7662 7.65402C22.7662 7.03235 22.7662 6.72152 22.8675 6.47605C23.0032 6.14983 23.2628 5.89075 23.5893 5.75567C23.8347 5.65295 24.1456 5.65295 24.7672 5.65295C25.3889 5.65295 25.6997 5.65295 25.9452 5.75433C26.2714 5.89002 26.5305 6.14958 26.6656 6.47605C26.7683 6.72152 26.7683 7.03235 26.7683 7.65402V14.9913L22.7662 10.3221V7.65402Z" fill="white"/>
</svg>
