<svg width="32" height="32" viewBox="0 0 32 32" fill="none" xmlns="http://www.w3.org/2000/svg">
<path d="M26.24 1.6C26.24 1.17565 26.0714 0.768687 25.7714 0.468629C25.4713 0.168571 25.0643 0 24.64 0C24.2156 0 23.8087 0.168571 23.5086 0.468629C23.2086 0.768687 23.04 1.17565 23.04 1.6H26.24ZM23.04 7.36C23.04 7.78434 23.2086 8.19131 23.5086 8.49137C23.8087 8.79142 24.2156 8.96 24.64 8.96C25.0643 8.96 25.4713 8.79142 25.7714 8.49137C26.0714 8.19131 26.24 7.78434 26.24 7.36H23.04ZM8.96 1.6C8.96 1.17565 8.79143 0.768687 8.49137 0.468629C8.19132 0.168571 7.78435 0 7.36 0C6.93566 0 6.52869 0.168571 6.22863 0.468629C5.92857 0.768687 5.76 1.17565 5.76 1.6H8.96ZM5.76 7.36C5.76 7.78434 5.92857 8.19131 6.22863 8.49137C6.52869 8.79142 6.93566 8.96 7.36 8.96C7.78435 8.96 8.19132 8.79142 8.49137 8.49137C8.79143 8.19131 8.96 7.78434 8.96 7.36H5.76ZM28.8 10.88V24H32V10.88H28.8ZM24 28.8H8V32H24V28.8ZM3.2 24V10.88H6.61139e-06V24H3.2ZM8.0016 6.08H23.9968V2.88H8.0048V6.08H8.0016ZM30.4 11.52H1.60001V14.72H30.4V11.52ZM23.04 1.6V7.36H26.24V1.6H23.04ZM5.76 1.6V7.36H8.96V1.6H5.76ZM8 28.8C6.4464 28.8 5.4416 28.7968 4.7024 28.6976C4.008 28.6032 3.7904 28.4528 3.6688 28.3312L1.40641 30.5936C2.22241 31.4096 3.2272 31.728 4.2752 31.8688C5.28 32.0032 6.536 32 8 32V28.8ZM6.61139e-06 24C6.61139e-06 25.464 -0.00319335 26.7216 0.131207 27.7248C0.272007 28.7728 0.590406 29.7792 1.40641 30.5936L3.6688 28.3312C3.5472 28.2096 3.3968 27.992 3.3024 27.2976C3.20321 26.56 3.2 25.5536 3.2 24H6.61139e-06ZM28.8 24C28.8 25.5536 28.7968 26.5584 28.6976 27.2976C28.6032 27.992 28.4528 28.2096 28.3312 28.3312L30.5936 30.5936C31.4096 29.7776 31.728 28.7728 31.8688 27.7248C32.0032 26.72 32 25.464 32 24H28.8ZM24 32C25.464 32 26.7216 32.0032 27.7248 31.8688C28.7728 31.728 29.7792 31.4096 30.5936 30.5936L28.3312 28.3312C28.2096 28.4528 27.992 28.6032 27.2976 28.6976C26.5584 28.7968 25.5536 28.8 24 28.8V32ZM32 10.88C32 9.416 32.0032 8.1584 31.8688 7.1552C31.728 6.1072 31.4096 5.1008 30.5936 4.2864L28.3312 6.5488C28.4528 6.6704 28.6032 6.888 28.6976 7.5824C28.7968 8.3216 28.8 9.3264 28.8 10.88H32ZM23.9984 6.08C25.552 6.08 26.5584 6.0832 27.2976 6.1824C27.992 6.2768 28.2096 6.4272 28.3312 6.5488L30.5936 4.2864C29.7776 3.4704 28.7728 3.152 27.7232 3.0112C26.72 2.8768 25.4624 2.88 24 2.88L23.9984 6.08ZM3.2 10.88C3.2 9.3264 3.20321 8.3216 3.3024 7.5824C3.3968 6.888 3.5472 6.6704 3.6688 6.5488L1.40641 4.2864C0.590406 5.1024 0.272007 6.1072 0.131207 7.1552C-0.00319335 8.16 6.61139e-06 9.416 6.61139e-06 10.88H3.2ZM8.0016 2.88C6.5376 2.88 5.28 2.8768 4.2768 3.0112C3.2272 3.152 2.22081 3.4704 1.40641 4.2864L3.6688 6.5488C3.7904 6.4272 4.008 6.2768 4.7024 6.1824C5.4432 6.0832 6.4464 6.08 8.0016 6.08V2.88Z" fill="white"/>
</svg>
